<svg xmlns="http://www.w3.org/2000/svg" xmlns:xlink="http://www.w3.org/1999/xlink" class="pug" width="100" height="100" viewBox="0 0 100 100"><g><g transform="translate(50 50) scale(0.69 0.69) rotate(0) translate(-50 -50)" style="fill:#000000"><svg fill="#000000" xmlns="http://www.w3.org/2000/svg" xmlns:xlink="http://www.w3.org/1999/xlink" version="1.1" x="0px" y="0px" viewBox="0 0 100 100" enable-background="new 0 0 100 100" xml:space="preserve"><g><g><path fill="none" d="M39.917,23.899c0.229,0.164,0.456,0.419,0.538,0.68c0.23,0.733,0.645,1.374,0.941,2.071    c0.187,0.441,0.595,0.782,0.597,1.302c0.003,0.676,0.24,1.313,0.402,1.948c0.349,1.361,0.55,2.758,1.021,4.091    c0.442,1.252,0.993,2.41,2.123,3.194c0.294,0.203,1.156,0.187,1.248-0.065c0.158-0.429,0.493-0.733,0.687-1.13    c0.559-1.144,1.008-2.329,1.338-3.559c0.089-0.33,0.294-0.676,0.248-0.985c-0.104-0.686,0.06-1.352,0.028-2.027    c-0.062-1.313-0.333-2.49-1.562-3.28c-0.685-0.44-1.435-0.842-1.956-1.486c-0.648-0.801-1.52-1.196-2.433-1.556    c-0.161-0.063-0.298-0.024-0.458-0.01c-1.003,0.088-1.952,0.806-3.036,0.25C39.7,23.591,39.723,23.761,39.917,23.899z"></path><path fill="none" d="M28.566,64.389c-0.036,0.389-0.612,0.603-0.357,1.086c0.001,0.002,0.001,0.004,0.002,0.006    c0,0,0.001-0.001,0.001-0.002C28.395,65.136,28.66,64.821,28.566,64.389z"></path><path fill="none" d="M28.185,60.886c-0.391-0.403-0.6-0.989-0.868-1.505c-0.503-0.97-1.01-1.948-1.146-3.049    c-0.131-1.059-0.247-1.182-1.322-1.12c-0.222,0.013-0.447-0.017-0.67-0.027c-0.306,0.022-0.611,0.049-0.917,0.064    c-0.176,0.008-0.32,0.052-0.396,0.227c-0.393,0.909-0.815,1.806-1.171,2.729c-0.24,0.622-0.426,1.27-0.573,1.921    c-0.395,1.743-1.455,3.205-2.018,4.878c-0.286,0.851-0.747,1.642-1.096,2.473c-0.511,1.216-0.947,2.466-1.501,3.662    c-0.429,0.926-0.422,1.908-0.523,2.872c-0.029,0.279,0.214,0.851,0.634,0.758c0.616-0.135,1.278-0.038,1.857-0.456    c1.527-1.105,2.916-2.343,3.971-3.914c0.661-0.983,1.446-1.884,2.058-2.885c0.5-0.816,1.383-1.286,1.716-2.249    c0.39-1.128,1.292-1.984,1.872-3.026C28.367,61.743,28.74,61.457,28.185,60.886z"></path><path fill="none" d="M70.21,64.087c-0.223-1.083-0.794-2.024-1.244-3.007c-0.376-0.821-1.088-1.436-1.991-1.612    c-0.457-0.089-0.922-0.202-1.324-0.371c-0.388-0.163-0.468,0.057-0.525,0.234c-0.242,0.751-0.502,1.491-0.832,2.209    c-0.466,1.012-0.85,2.064-1.36,3.052c-0.46,0.89-1.084,1.695-1.56,2.577c-0.546,1.012-1.188,1.965-1.712,2.995    c-0.808,1.591-1.789,3.086-2.281,4.835c-0.331,1.177-0.037,1.623,1.688,1.477c0.661-0.092,1.6-0.763,2.509-1.396    c0.919-0.641,1.601-1.57,2.32-2.44c0.684-0.828,1.398-1.635,2.095-2.449c1.034-1.208,1.606-2.744,2.817-3.802    c0.471-0.411,0.623-1.066,1.082-1.448C70.21,64.676,70.288,64.463,70.21,64.087z"></path><path fill="none" d="M14.073,47.218c0.793-0.365,1.562-0.898,2.121-1.591c0.444-0.55,0.937-1.046,1.451-1.508    c0.972-0.873,1.899-1.759,2.298-3.049c0.168-0.545,0.186-1.041-0.366-1.447c-0.306-0.225-0.689-0.423-0.852-0.788    c-0.32-0.717-0.85-1.321-1.08-2.171c-0.902,0.791-1.775,1.41-2.481,2.282c-0.545,0.673-1.169,1.334-1.829,1.933    c-0.339,0.308-0.739,0.682-0.841,1.093c-0.288,1.162-0.781,2.277-0.815,3.504C11.647,46.698,12.951,47.734,14.073,47.218z"></path><path fill="none" d="M17.471,46.333c-0.313,0.201-0.728,0.429-0.27,1.028c0.335,0.439,0.731,0.631,1.154,0.884    c0.984,0.588,2.008,0.558,3.064,0.3c0.353-0.086,0.671-0.292,1.071-0.228c0.138,0.022,0.483-0.073,0.285-0.37    c-0.431-0.644-0.737-1.371-1.187-1.985c-0.508-0.694-0.782-1.492-1.235-2.187C19.289,44.535,18.564,45.629,17.471,46.333z"></path><path fill="none" d="M30.386,45.431c-0.192-0.767-0.304-1.575-0.753-2.258c-0.648-0.985-1.275-1.985-2.057-2.877    c-0.856-0.978-1.54-2.109-2.603-2.903c-0.506-0.378-0.901-0.337-1.305,0.183c-0.284,0.365-0.525,0.771-0.925,1.026    c-0.489,0.313-0.871,0.667-1.003,1.288c-0.338,1.599-0.486,3.141,0.52,4.602c0.241,0.35,0.556,0.68,0.699,1.094    c0.268,0.779,0.824,1.354,1.368,1.924c0.665,0.698,1.478,1.177,2.333,1.65c0.741,0.41,1.464,0.313,2.157,0.341    c0.905,0.036,1.827-1.348,1.637-2.263C30.329,46.633,30.559,46.032,30.386,45.431z"></path><path fill="none" d="M87.935,36.309c-0.161-0.763-0.765-1.248-1.091-1.966C86.502,35.229,87.075,36.203,87.935,36.309z"></path><path fill="none" d="M92.232,32.668c-0.325-0.289-0.661-0.583-0.917-0.93c-0.602-0.818-1.419-1.301-2.371-1.535    c-0.928-0.228-1.886-0.303-2.847-0.321c-0.552-0.027-1.091,0.059-1.608,0.249c-0.762,0.281-1.417,0.758-2.115,1.15    c-0.96,0.539-1.43,1.325-1.624,2.285c-0.315,1.557-0.377,3.143,0.064,4.694c0.333,1.173,0.947,2.092,2.163,2.614    c1.239,0.531,2.427,0.145,3.639,0.078c0.239-0.013,0.555-0.015,0.699-0.158c0.722-0.718,1.524-1.365,2.104-2.215    c0.108-0.158,0.337-0.371,0.186-0.527c-0.112-0.116-0.479-0.15-0.607-0.054c-0.408,0.307-0.662,0.058-0.969-0.142    c-0.166-0.108-0.366-0.171-0.559-0.229c-1.046-0.314-1.567-1.158-2.054-2.032c-0.054-0.098-0.072-0.259-0.031-0.359    c0.148-0.362,0.042-0.729-0.006-1.072c-0.078-0.552,0.177-0.942,0.563-1.181c0.582-0.361,1.144-0.222,1.609,0.196    c0.954,0.857,1.303,2.07,1.813,3.168c0.236,0.508,0.37,0.249,0.551,0.116c0.508-0.373,1.096-0.27,1.342,0.322    c0.323,0.777-0.174,1.438-0.492,2.054c-0.415,0.801-1.052,1.487-0.594,2.492c0.104,0.229,0.1,0.514,0.113,0.775    c0.018,0.351,0.214,0.383,0.439,0.23c1.047-0.711,1.916-1.627,2.282-2.833c0.368-1.21,0.631-2.46,0.31-3.773    C93.055,34.664,93.162,33.494,92.232,32.668z"></path><path fill="none" d="M28.978,63.952c0.021-0.082,0-0.147-0.088-0.184c-0.098-0.002-0.121,0.074-0.136,0.149    c-0.015,0.075-0.014,0.166,0.077,0.18C28.918,64.111,28.959,64.03,28.978,63.952z"></path><path fill="none" d="M10.11,29.483c0.661-0.925,1.436-1.762,1.844-2.854c0.153-0.41,0.404-0.763,0.714-1.105    c0.456-0.503,0.843-1.077,1.135-1.721c0.254-0.559,0.271-1.233,0.767-1.68c0.338-0.304,0.574-0.691,0.861-1.033    c0.416-0.497,0.778-1.092,1.49-1.258c0.152-0.036,0.326-0.086,0.343-0.297c0.04-0.207-0.122-0.143-0.226-0.179    c-0.864-0.305-1.52,0.272-2.235,0.545c-0.884,0.337-1.719,0.804-2.607,1.126c-1.488,0.539-2.9,1.125-4.139,2.202    c-1.104,0.96-1.815,2.045-1.587,3.427c0.231,1.4,0.442,2.872,1.352,4.071c0.153,0.202,0.256,0.391,0.248,0.66    c-0.008,0.277,0.144,0.554,0.423,0.587c0.253,0.03,0.332-0.257,0.402-0.468C9.147,30.741,9.658,30.116,10.11,29.483z"></path><polygon fill="none" points="28.209,65.485 28.208,65.485 28.212,65.484   "></polygon><path fill="none" d="M89.047,43.145c-0.064-0.466-0.175-0.927-0.277-1.387c-0.031-0.139-0.096-0.282-0.293-0.184    c-0.899,0.447-1.834,0.751-2.825,0.964c-0.806,0.172-1.579,0.176-2.328-0.035c-2.04-0.575-3.144-2.204-4.057-3.934    c-0.449-0.851-0.142-1.92-0.459-2.849c-0.018-0.054,0.057-0.144,0.097-0.213c0.226-0.398,0.252-0.82,0.216-1.271    c-0.097-1.218,0.291-2.276,1.122-3.172c0.756-0.816,0.742-0.53-0.186-1.212c-0.016-0.012-0.04-0.012-0.056-0.023    c-0.904-0.597-1.996-0.689-2.971-1.101c-0.459-0.194-0.957-0.31-1.447-0.415c-1.192-0.256-2.382-0.557-3.589-0.703    c-1.133-0.137-2.293-0.262-3.428-0.047c-0.365,0.069-0.706,0.133-1.084,0.16c-1.472,0.104-2.935,0.337-4.342,0.82    c-0.878,0.302-1.806,0.512-2.615,0.944c-0.79,0.422-1.653,0.607-2.465,0.929c-0.909,0.361-1.967,0.342-2.727,1.099    c-0.051,0.051-0.149,0.069-0.228,0.077c-1.438,0.142-2.831,0.666-4.307,0.495c-0.275-0.032-0.44,0.046-0.397,0.425    c0.044,0.387-0.11,0.786-0.365,1.094c-0.269,0.325-0.278,0.723-0.342,1.089c-0.136,0.787-0.396,1.49-0.867,2.151    c-0.273,0.382-0.55,0.784-0.76,1.211c-0.241,0.49-1.213,1.083-1.74,0.936c-0.559-0.156-1.152-0.196-1.616-0.686    c-0.257-0.272-0.706-0.319-0.931-0.748c-0.28-0.536-0.558-1.075-0.85-1.606c-0.591-1.074-1.114-2.173-1.535-3.326    c-0.37-1.011-0.217-2.098-0.596-3.134c-0.476-1.302-1.118-2.534-1.538-3.855c-0.078-0.245-0.226-0.477-0.38-0.687    c-0.372-0.508-0.68-1.048-0.767-1.675c-0.032-0.23-0.14-0.324-0.323-0.379c-0.849-0.252-1.687-0.577-2.53-0.791    c-1.03-0.261-2.028-0.598-3.029-0.929c-0.67-0.221-1.393-0.13-2.037-0.431c-0.533-0.249-1.076-0.392-1.68-0.315    c-0.334,0.043-0.698,0.026-1.022-0.062c-1.381-0.374-2.797-0.212-4.192-0.335c-0.727-0.064-1.369,0.293-2.074,0.252    c-0.928-0.054-1.835-0.072-2.741,0.285c-1.139,0.45-1.964,1.146-2.487,2.272c-0.435,0.936-0.899,1.893-1.539,2.688    c-0.498,0.619-0.853,1.249-1.132,1.974c-0.248,0.643-0.569,1.252-1.043,1.793c-0.419,0.478-0.826,1.044-1.001,1.64    c-0.353,1.21-0.657,2.434-1.136,3.604c-0.163,0.398-0.371,0.777-0.532,1.175c-0.233,0.574-0.19,1.203-0.329,1.797    c-0.307,1.317-0.783,2.608-0.732,3.985c0.026,0.703-0.392,1.39-0.114,2.08c0.355,0.881,0.781,1.733,1.599,2.454    c-0.162-1.041,0.126-1.93,0.256-2.836c0.066-0.459,0.245-0.882,0.518-1.224c0.623-0.778,1.029-1.685,1.709-2.453    c0.682-0.771,1.429-1.506,2.082-2.318c0.633-0.788,1.525-1.403,2.466-1.878c0.2-0.101,0.433-0.053,0.619-0.226    c1.505-1.392,3.273-0.96,4.988-0.637c0.803,0.151,1.472,0.57,2.085,1.224c0.9,0.961,2.206,1.477,3.011,2.608    c0.693,0.973,1.554,1.825,2.256,2.792c0.453,0.624,0.732,1.37,1.124,2.041c0.413,0.708,0.726,1.442,0.814,2.263    c0.129,1.206,0.283,2.379-0.344,3.555c-0.272,0.511-0.501,0.982-0.987,1.279c-0.67,0.409-1.251,0.854-2.188,0.796    c-1.706-0.105-3.153-0.645-4.403-1.771c-0.236-0.212-0.406-0.141-0.647-0.006c-1.162,0.652-2.333,1.262-3.751,0.902    c-1.394-0.353-2.837-0.637-3.593-2.053c-0.318-0.595-0.669-0.264-0.881-0.066c-0.491,0.459-1.04,0.667-1.69,0.714    c-0.195,0.014-0.432,0.011-0.226,0.395c0.955,1.778,2.469,2.855,4.309,3.519c0.836,0.302,1.639,0.686,2.529,0.863    c0.839,0.167,1.695,0.26,2.534,0.42c0.323,0.062,0.66,0.311,1.075,0.195c0.868-0.244,1.721-0.535,2.618-0.703    c0.643-0.12,1.345-0.151,1.929-0.426c0.863-0.407,1.805-0.624,2.624-1.118c0.591-0.357,1.328-0.351,1.886-0.679    c1.096-0.644,2.278-1.077,3.408-1.631c0.148-0.073,0.275-0.095,0.379,0.044c0.104,0.138,0.051,0.262-0.057,0.382    c-0.162,0.181-0.357,0.351-0.462,0.564c-0.34,0.689-0.888,1.094-1.571,1.425c-0.451,0.218-0.97,0.307-1.359,0.558    c-0.91,0.586-1.936,0.904-2.928,1.169c-1.016,0.271-1.87,0.861-2.864,1.12c-0.313,0.082-0.282,0.276-0.228,0.505    c0.185,0.782,0.614,1.467,0.927,2.193c0.424,0.983,1.064,1.871,1.548,2.831c0.131,0.261,0.349,0.379,0.511,0.576    c0.107,0.13,0.283,0.177,0.393-0.042c0.353-0.7,0.73-1.39,0.871-2.174c0.239-1.334,0.76-2.573,1.288-3.808    c0.06-0.14,0.192-0.274,0.393-0.226c0.182,0.043,0.317,0.191,0.296,0.345c-0.116,0.852-0.155,1.736-0.432,2.536    c-0.247,0.715-0.49,1.447-0.826,2.143c-0.323,0.669-0.381,1.467-0.706,2.135c-0.802,1.647-1.301,3.405-1.988,5.093    c-0.248,0.611-0.405,1.353-0.797,1.789c-0.556,0.619-0.741,1.391-0.889,2.038c-0.332,1.448-0.89,2.817-1.364,4.198    c-0.339,0.987-0.292,1.858-0.14,2.787c0.108,0.661,0.894,1.255,1.465,1.132c0.401-0.087,0.794-0.22,1.159-0.465    c0.615-0.411,1.077-1.001,1.687-1.396c0.654-0.424,1.206-0.968,1.766-1.482c1.48-1.361,2.729-2.945,4.014-4.489    c0.875-1.051,1.738-2.113,2.615-3.163c0.256-0.306,0.563-0.554,0.796-0.898c0.167-0.246,0.304-0.597,0.649-0.728    c0.495-0.188,0.764-0.648,1.097-1.01c0.569-0.619,1.022-1.346,1.601-1.954c0.946-0.994,1.959-1.917,2.684-3.11    c0.557-0.917,0.609-0.912,1.549-0.421c0.313,0.163,0.629,0.108,0.938,0.163c1.324,0.232,2.671,0.35,4,0.164    c1.155-0.162,2.331-0.306,3.426-0.783c0.157-0.069,0.212-0.239,0.389-0.264c1.61-0.224,2.99-1.159,4.626-1.408    c1.095-0.167,2.169-0.389,3.274-0.314c1.271,0.087,2.441,0.598,3.655,0.933c0.623,0.172,1.149,0.558,1.625,0.873    c1.194,0.788,1.782,2.123,2.335,3.424c0.802,1.887,0.391,3.725-0.28,5.523c-0.383,1.025-0.935,1.986-1.362,2.996    c-0.367,0.869-0.763,1.715-1.207,2.552c-0.419,0.789-1.055,1.422-1.406,2.248c-0.422,0.995-0.91,1.962-1.36,2.947    c-0.19,0.417-0.137,0.829,0.136,1.192c0.289,0.384,0.723,0.212,1.059,0.16c2.131-0.329,3.901-1.379,5.344-2.941    c0.522-0.565,1.075-1.118,1.638-1.608c1.172-1.02,2.161-2.202,3.258-3.284c0.454-0.448,0.71-1.046,1.154-1.46    c0.708-0.661,1.163-1.493,1.752-2.231c0.398-0.5,0.611-1.102,1.089-1.575c0.636-0.63,1.207-1.374,1.626-2.165    c0.701-1.321,1.527-2.551,2.393-3.76c0.395-0.551,0.921-1.029,1.22-1.625c0.482-0.963,0.813-2,1.231-2.996    c0.517-1.234,0.902-2.505,1.191-3.81c0.209-0.946,0.459-1.901,0.565-2.847c0.131-1.162-0.029-2.362-0.124-3.541    C89.349,45.264,89.193,44.204,89.047,43.145z M17,31.004c-0.334,0.751-0.622,1.531-1.033,2.239    c-0.454,0.783-1.005,1.516-1.676,2.137c-0.372,0.344-0.799,0.605-1.318,0.65c-0.785-0.055-1.257-0.542-1.255-1.325    c0.004-1.599,0.445-3.059,1.409-4.345c0.23-0.307,0.538-0.553,0.935-0.357c0.406,0.201,0.583,0.529,0.353,1.003    c-0.123,0.254-0.221,0.51-0.409,0.731c-0.505,0.592-0.686,1.308-0.715,2.067c-0.004,0.116-0.139,0.289,0.076,0.365    c0.183,0.065,0.326-0.021,0.424-0.16c0.195-0.274,0.441-0.537,0.546-0.845c0.338-0.996,1.117-1.71,1.601-2.61    c0.142-0.264,0.385-0.47,0.696-0.333C16.951,30.356,17.174,30.613,17,31.004z M28.31,36.055c-0.234,0.14-0.375-0.022-0.54-0.138    c-0.301-0.21-0.532-0.464-0.754-0.77c-1.051-1.451-2.29-2.733-4.198-2.859c-1.448-0.095-2.837,0.279-4.029,1.19    c-0.175,0.134-0.37,0.244-0.561,0.355c-0.268,0.156-0.534,0.097-0.716-0.118c-0.184-0.218-0.194-0.468,0.041-0.707    c0.549-0.557,1.111-1.062,1.807-1.469c0.562-0.329,1.153-0.419,1.592-0.679c0.722,0,1.311,0.015,1.899-0.003    c1.46-0.044,2.63,0.591,3.671,1.537c0.42,0.382,0.81,0.803,1.257,1.149c0.656,0.507,0.75,1.214,0.813,1.952    C28.615,35.748,28.528,35.925,28.31,36.055z M36.097,35.399c-0.766,1.277-1.586,2.523-2.731,3.496    c-0.479,0.407-1.07,0.7-1.738,0.457c-0.796-0.29-1.205-0.896-1.274-1.734c-0.013-0.162-0.002-0.325-0.002-0.488    c-0.052-1.352,0.578-2.428,1.417-3.403c0.206-0.239,0.476-0.565,0.882-0.264c0.379,0.281,0.226,0.575,0.047,0.904    c-0.485,0.887-0.877,1.807-0.899,2.846c-0.003,0.145-0.013,0.284,0.047,0.412c0.101,0.214,0.131,0.333,0.449,0.108    c0.837-0.592,1.335-1.404,1.904-2.222c0.465-0.667,0.807-1.493,1.573-1.947c0.183-0.108,0.333-0.25,0.549-0.144    c0.229,0.113,0.28,0.317,0.272,0.564C36.574,34.511,36.357,34.965,36.097,35.399z"></path><path d="M94.035,32.493c-0.603-1.181-1.666-2.051-2.703-2.897c-0.997-0.813-2.205-0.957-3.402-1.123    c-1.976-0.273-3.872,0.02-5.663,0.916c-0.153,0.076-0.285,0.167-0.447,0.048c-0.833-0.613-1.835-0.896-2.723-1.371    c-1.241-0.663-2.503-1.038-3.875-1.185c-0.778-0.083-1.569-0.164-2.316-0.378c-0.534-0.153-1.072-0.263-1.61-0.33    c-0.832-0.102-1.646-0.262-2.525-0.135c-0.701,0.101-1.49,0.035-2.141,0.257c-1.235,0.42-2.562,0.394-3.768,0.927    c-0.804,0.356-1.677,0.553-2.512,0.844c-0.88,0.308-1.663,0.826-2.584,1.076c-1.95,0.528-3.866,1.199-5.892,1.372    c-1.419,0.121-1.35,0.389-1.242-1.239c0.098-1.467-0.19-2.869-1.355-3.877c-0.942-0.814-2.053-1.436-2.975-2.268    c-0.65-0.587-1.5-0.761-2.164-1.309c-0.253-0.209-0.81-0.333-1.265-0.202c-0.809,0.233-1.599,0.752-2.464,0.16    c-0.042-0.029-0.12-0.012-0.18-0.007c-0.903,0.072-1.729-0.257-2.56-0.519c-0.784-0.247-1.524-0.645-2.317-0.851    c-1.362-0.355-2.799-0.373-4.138-0.827c-0.433-0.147-0.876,0.106-1.24-0.102c-0.538-0.308-1.123-0.412-1.704-0.484    c-0.908-0.112-1.834-0.077-2.74-0.201c-1.099-0.149-2.193,0.032-3.309-0.121c-1.114-0.152-2.329-0.029-3.442,0.406    c-0.126,0.049-0.269,0.104-0.401-0.017c-1.145-1.047-2.408-0.975-3.769-0.474c-1.014,0.373-2.101,0.517-3.05,1.112    c-0.309,0.194-0.634,0.436-1.015,0.531c-1.219,0.302-2.36,0.788-3.28,1.652c-0.65,0.611-1.361,1.142-1.766,2.028    c-0.745,1.633-0.568,3.208-0.022,4.809c0.295,0.865,0.727,1.696,0.922,2.581c0.314,1.418,0.91,2.108,2.284,2.344    c-0.142,0.791-0.369,1.568-0.573,2.341c-0.28,1.059-0.412,2.13-0.618,3.195c-0.114,0.589,0.061,1.206-0.14,1.756    c-0.253,0.694-0.253,1.396-0.262,2.103c-0.013,0.984,0.365,1.831,0.92,2.636c0.571,0.829,1.203,1.607,1.811,2.405    c0.443,0.581,0.935,1.107,1.399,1.662c0.588,0.703,1.417,1.131,1.964,1.86c0.522,0.695,1.223,1.113,1.99,1.511    c0.723,0.375,1.556,0.453,2.224,0.935c0.93,0.671,2.007,0.893,3.119,0.955c0.433,0.024,0.552,0.177,0.52,0.599    c-0.056,0.742-0.329,1.403-0.601,2.08c-0.373,0.928-0.592,1.932-0.975,2.834c-0.494,1.163-0.96,2.343-1.415,3.519    c-0.637,1.644-1.69,3.073-2.308,4.716c-0.328,0.873-0.732,1.742-0.88,2.649c-0.107,0.657-0.227,1.329-0.299,2.001    c-0.076,0.697,0.372,2.182,0.957,2.519c0.83,0.478,1.644,0.488,2.541,0.045c0.524-0.259,1.022-0.537,1.457-0.902    c0.574-0.482,1.354-0.618,1.871-1.177c0.806-0.871,1.594-1.76,2.424-2.608c0.782-0.799,1.17-1.864,1.899-2.696    c0.524-0.598,0.922-1.289,1.365-1.946c0.287-0.427,0.515-1.013,1.136-1.15l0,0c0.001,0,0.002-0.001,0.004-0.001    c-0.001,0-0.002,0.001-0.004,0.001c-0.561,1.016-0.89,2.126-1.251,3.218c-0.661,1.999-1.527,3.926-1.958,6.008    c-0.316,1.527-0.654,3.012,0.328,4.416c0.357,0.51,0.75,0.938,1.453,1.053c1.031,0.169,1.948-0.054,2.868-0.476    c0.348-0.16,0.765-0.242,0.986-0.549c0.516-0.717,1.259-1.193,1.838-1.851c0.702-0.797,1.596-1.439,2.368-2.174    c0.688-0.655,1.216-1.477,1.935-2.154c1.061-1.001,1.773-2.338,2.843-3.356c0.41-0.39,0.537-0.961,0.869-1.374    c0.53-0.661,1.18-1.227,1.787-1.825c0.153-0.151,0.405-0.179,0.48-0.434c0.203-0.69,0.762-1.171,1.224-1.628    c0.927-0.919,1.786-1.894,2.664-2.854c0.068-0.075,0.108-0.198,0.228-0.139c0.858,0.425,1.838,0.122,2.704,0.463    c0.144,0.057,0.269,0.066,0.403,0.058c1.932-0.112,3.866-0.105,5.638-1.147c0.704-0.414,1.621-0.424,2.416-0.741    c0.924-0.369,1.887-0.657,2.855-0.892c0.836-0.203,1.699-0.305,2.568-0.281c0.292,0.008,0.44,0.166,0.346,0.429    c-0.187,0.52-0.274,1.075-0.638,1.536c-0.28,0.354-0.523,0.758-0.691,1.176c-0.334,0.833-0.782,1.607-1.242,2.365    c-0.41,0.675-0.668,1.417-1.084,2.096c-0.581,0.947-1.113,1.927-1.739,2.852c-0.247,0.365-0.52,0.743-0.644,1.156    c-0.299,0.999-0.855,1.855-1.393,2.722c-0.568,0.914-1.014,1.822-0.613,2.946c0.225,0.63,0.537,1.264,1.099,1.527    c0.905,0.424,1.922,0.435,2.891,0.108c1.218-0.41,2.218-1.222,3.318-1.851c0.386-0.221,0.427-0.699,0.77-0.913    c0.872-0.543,1.382-1.381,1.891-2.224c0.923-1.529,2.346-2.678,3.229-4.237c0.131-0.232,0.342-0.342,0.63-0.481    c-0.233,1.185-0.838,2.128-1.279,3.135c-0.355,0.809-1.038,1.434-1.426,2.207c-0.608,1.21-1.442,2.302-1.86,3.614    c-0.164,0.514-0.5,0.97-0.712,1.471c-0.283,0.671,0.037,1.293,0.198,1.936c0.205,0.818,0.985,1.392,1.837,1.374    c0.775-0.016,1.521-0.094,2.201-0.478c0.784-0.443,1.724-0.441,2.472-1.087c0.71-0.613,1.492-1.186,2.294-1.688    c0.444-0.278,0.613-0.849,1.139-0.97c0.429-0.099,0.723-0.37,0.975-0.677c0.591-0.722,1.264-1.371,1.837-2.112    c0.638-0.824,1.273-1.661,2.065-2.353c0.378-0.331,0.371-0.911,0.719-1.208c0.558-0.477,0.949-1.074,1.358-1.651    c0.549-0.773,1.093-1.547,1.69-2.285c0.572-0.706,1.204-1.393,1.622-2.187c0.905-1.721,2.033-3.311,2.893-5.054    c0.382-0.774,1.022-1.398,1.275-2.242c0.231-0.768,0.375-1.572,0.694-2.3c0.591-1.352,0.795-2.795,1.103-4.211    c0.247-1.135,0.275-2.301,0.214-3.47c-0.068-1.302,0.108-2.625-0.402-3.883c-0.131-0.322-0.069-0.533,0.347-0.584    c0.624-0.076,1.214-0.366,1.709-0.689c0.993-0.647,1.644-1.646,2-2.769c0.316-0.997,0.349-2.053,0.432-3.1    C95.1,35.23,94.704,33.801,94.035,32.493z M42.678,23.089c0.161-0.014,0.298-0.053,0.458,0.01c0.913,0.36,1.785,0.755,2.433,1.556    c0.521,0.644,1.271,1.046,1.956,1.486c1.229,0.79,1.5,1.967,1.562,3.28c0.032,0.675-0.132,1.341-0.028,2.027    c0.047,0.308-0.159,0.655-0.248,0.985c-0.33,1.23-0.779,2.415-1.338,3.559c-0.194,0.396-0.528,0.7-0.687,1.13    c-0.093,0.252-0.955,0.268-1.248,0.065c-1.13-0.784-1.681-1.942-2.123-3.194c-0.471-1.333-0.672-2.73-1.021-4.091    c-0.163-0.635-0.4-1.272-0.402-1.948c-0.002-0.52-0.41-0.862-0.597-1.302c-0.296-0.697-0.711-1.338-0.941-2.071    c-0.082-0.261-0.31-0.517-0.538-0.68c-0.193-0.139-0.217-0.309-0.274-0.56C40.726,23.895,41.675,23.178,42.678,23.089z     M8.494,31.975c-0.279-0.033-0.431-0.31-0.423-0.587c0.008-0.269-0.095-0.458-0.248-0.66c-0.911-1.2-1.121-2.672-1.352-4.071    c-0.228-1.382,0.483-2.467,1.587-3.427c1.239-1.078,2.651-1.663,4.139-2.202c0.888-0.322,1.724-0.789,2.607-1.126    c0.716-0.273,1.372-0.849,2.235-0.545c0.103,0.036,0.266-0.028,0.226,0.179c-0.017,0.211-0.191,0.261-0.343,0.297    c-0.712,0.166-1.074,0.76-1.49,1.258c-0.287,0.343-0.523,0.73-0.861,1.033c-0.496,0.446-0.513,1.121-0.767,1.68    c-0.293,0.644-0.68,1.218-1.135,1.721c-0.31,0.342-0.56,0.695-0.714,1.105c-0.408,1.092-1.183,1.929-1.844,2.854    c-0.452,0.633-0.963,1.258-1.214,2.024C8.827,31.719,8.748,32.006,8.494,31.975z M11.681,45.478    c0.033-1.227,0.527-2.342,0.815-3.504c0.102-0.411,0.502-0.785,0.841-1.093c0.66-0.6,1.284-1.261,1.829-1.933    c0.706-0.872,1.579-1.491,2.481-2.282c0.231,0.85,0.76,1.454,1.08,2.171c0.163,0.365,0.546,0.563,0.852,0.788    c0.551,0.406,0.534,0.902,0.366,1.447c-0.399,1.291-1.326,2.176-2.298,3.049c-0.514,0.462-1.007,0.958-1.451,1.508    c-0.559,0.693-1.328,1.226-2.121,1.591C12.951,47.734,11.647,46.698,11.681,45.478z M30.454,47.237    c0.189,0.915-0.732,2.3-1.637,2.263c-0.693-0.028-1.416,0.069-2.157-0.341c-0.854-0.473-1.667-0.952-2.333-1.65    c-0.543-0.57-1.1-1.145-1.368-1.924c-0.143-0.414-0.458-0.743-0.699-1.094c-1.006-1.461-0.858-3.003-0.52-4.602    c0.131-0.621,0.514-0.975,1.003-1.288c0.399-0.256,0.641-0.661,0.925-1.026c0.404-0.519,0.799-0.561,1.305-0.183    c1.062,0.795,1.746,1.925,2.603,2.903c0.782,0.893,1.409,1.892,2.057,2.877c0.45,0.683,0.562,1.491,0.753,2.258    C30.559,46.032,30.329,46.633,30.454,47.237z M21.589,45.961c0.45,0.614,0.756,1.341,1.187,1.985    c0.198,0.297-0.147,0.392-0.285,0.37c-0.4-0.064-0.718,0.142-1.071,0.228c-1.056,0.258-2.08,0.289-3.064-0.3    c-0.423-0.253-0.819-0.445-1.154-0.884c-0.457-0.599-0.043-0.826,0.27-1.028c1.093-0.704,1.818-1.798,2.883-2.559    C20.807,44.469,21.081,45.267,21.589,45.961z M26.219,65.266c-0.333,0.963-1.216,1.432-1.716,2.249    c-0.613,1.001-1.398,1.902-2.058,2.885c-1.056,1.57-2.444,2.808-3.971,3.914c-0.578,0.418-1.241,0.321-1.857,0.456    c-0.42,0.092-0.663-0.48-0.634-0.758c0.1-0.964,0.093-1.946,0.523-2.872c0.554-1.196,0.99-2.445,1.501-3.662    c0.349-0.831,0.809-1.622,1.096-2.473c0.564-1.674,1.624-3.136,2.018-4.878c0.147-0.651,0.333-1.299,0.573-1.921    c0.357-0.923,0.778-1.82,1.171-2.729c0.076-0.175,0.22-0.219,0.396-0.227c0.306-0.014,0.611-0.042,0.917-0.064    c0.223,0.01,0.448,0.039,0.67,0.027c1.075-0.062,1.191,0.061,1.322,1.12c0.137,1.101,0.643,2.079,1.146,3.049    c0.268,0.516,0.476,1.102,0.868,1.505c0.555,0.571,0.182,0.856-0.094,1.353C27.511,63.282,26.609,64.138,26.219,65.266z     M28.212,65.478c0,0.001-0.001,0.001-0.001,0.001c-0.001-0.001-0.001-0.003-0.002-0.005c-0.255-0.483,0.321-0.697,0.357-1.086    C28.66,64.821,28.395,65.136,28.212,65.478z M68.809,66.389c-1.211,1.058-1.783,2.594-2.817,3.802    c-0.697,0.814-1.41,1.621-2.095,2.449c-0.719,0.87-1.401,1.8-2.32,2.44c-0.909,0.633-1.848,1.304-2.509,1.396    c-1.724,0.146-2.019-0.3-1.688-1.477c0.492-1.748,1.474-3.244,2.281-4.835c0.523-1.031,1.165-1.983,1.712-2.995    c0.476-0.883,1.1-1.687,1.56-2.577c0.51-0.988,0.894-2.04,1.36-3.052c0.331-0.718,0.59-1.458,0.832-2.209    c0.057-0.177,0.137-0.397,0.525-0.234c0.402,0.169,0.867,0.282,1.324,0.371c0.904,0.176,1.616,0.791,1.991,1.612    c0.45,0.983,1.021,1.924,1.244,3.007c0.077,0.376-0.001,0.589-0.319,0.854C69.432,65.323,69.28,65.978,68.809,66.389z     M89.558,49.871c-0.107,0.946-0.356,1.901-0.565,2.847c-0.289,1.306-0.675,2.576-1.191,3.81c-0.417,0.996-0.748,2.034-1.231,2.996    c-0.298,0.596-0.824,1.074-1.22,1.625c-0.866,1.209-1.692,2.438-2.393,3.76c-0.419,0.79-0.99,1.535-1.626,2.165    c-0.478,0.473-0.69,1.075-1.089,1.575c-0.589,0.738-1.044,1.57-1.752,2.231c-0.444,0.414-0.7,1.012-1.154,1.46    c-1.097,1.082-2.086,2.264-3.258,3.284c-0.564,0.49-1.116,1.043-1.638,1.608c-1.444,1.562-3.213,2.612-5.344,2.941    c-0.336,0.052-0.77,0.224-1.059-0.16c-0.273-0.363-0.326-0.775-0.136-1.192c0.449-0.984,0.937-1.951,1.36-2.947    c0.351-0.826,0.987-1.459,1.406-2.248c0.444-0.836,0.84-1.682,1.207-2.552c0.427-1.01,0.979-1.971,1.362-2.996    c0.671-1.798,1.082-3.636,0.28-5.523c-0.553-1.301-1.141-2.636-2.335-3.424c-0.477-0.314-1.002-0.701-1.625-0.873    c-1.213-0.335-2.384-0.846-3.655-0.933c-1.105-0.075-2.179,0.147-3.274,0.314c-1.636,0.249-3.015,1.184-4.626,1.408    c-0.177,0.024-0.231,0.195-0.389,0.264c-1.095,0.477-2.27,0.621-3.426,0.783c-1.329,0.186-2.677,0.068-4-0.164    c-0.309-0.054-0.625,0.001-0.938-0.163c-0.94-0.491-0.992-0.495-1.549,0.421c-0.725,1.193-1.738,2.115-2.684,3.11    c-0.579,0.608-1.032,1.335-1.601,1.954c-0.333,0.362-0.602,0.822-1.097,1.01c-0.345,0.131-0.482,0.482-0.649,0.728    c-0.233,0.344-0.54,0.592-0.796,0.898c-0.878,1.049-1.74,2.111-2.615,3.163c-1.285,1.544-2.534,3.128-4.014,4.489    c-0.559,0.514-1.111,1.058-1.766,1.482c-0.61,0.395-1.072,0.985-1.687,1.396c-0.366,0.244-0.758,0.378-1.159,0.465    c-0.57,0.123-1.356-0.471-1.465-1.132c-0.152-0.929-0.199-1.8,0.14-2.787c0.474-1.38,1.032-2.75,1.364-4.198    c0.148-0.647,0.333-1.418,0.889-2.038c0.392-0.436,0.548-1.178,0.797-1.789c0.687-1.687,1.186-3.446,1.988-5.093    c0.325-0.668,0.383-1.466,0.706-2.135c0.336-0.696,0.579-1.427,0.826-2.143c0.277-0.8,0.316-1.685,0.432-2.536    c0.021-0.155-0.114-0.302-0.296-0.345c-0.2-0.048-0.333,0.086-0.393,0.226c-0.528,1.235-1.049,2.474-1.288,3.808    c-0.141,0.784-0.518,1.474-0.871,2.174c-0.11,0.219-0.286,0.172-0.393,0.042c-0.162-0.197-0.38-0.315-0.511-0.576    c-0.484-0.96-1.124-1.848-1.548-2.831c-0.313-0.727-0.743-1.411-0.927-2.193c-0.054-0.229-0.085-0.423,0.228-0.505    c0.994-0.26,1.848-0.849,2.864-1.12c0.992-0.265,2.017-0.583,2.928-1.169c0.389-0.251,0.908-0.34,1.359-0.558    c0.684-0.331,1.231-0.736,1.571-1.425c0.105-0.212,0.299-0.382,0.462-0.564c0.108-0.12,0.161-0.244,0.057-0.382    c-0.105-0.139-0.231-0.116-0.379-0.044c-1.13,0.554-2.313,0.988-3.408,1.631c-0.558,0.328-1.295,0.322-1.886,0.679    c-0.819,0.494-1.761,0.711-2.624,1.118c-0.585,0.275-1.286,0.306-1.929,0.426c-0.897,0.168-1.75,0.459-2.618,0.703    c-0.415,0.116-0.753-0.133-1.075-0.195c-0.839-0.16-1.695-0.253-2.534-0.42c-0.89-0.177-1.693-0.561-2.529-0.863    c-1.84-0.664-3.355-1.741-4.309-3.519c-0.206-0.384,0.031-0.381,0.226-0.395c0.65-0.047,1.199-0.255,1.69-0.714    c0.213-0.199,0.563-0.53,0.881,0.066c0.756,1.415,2.199,1.699,3.593,2.053c1.417,0.359,2.589-0.25,3.751-0.902    c0.241-0.135,0.411-0.207,0.647,0.006c1.25,1.125,2.697,1.665,4.403,1.771c0.938,0.058,1.519-0.388,2.188-0.796    c0.486-0.297,0.715-0.768,0.987-1.279c0.627-1.176,0.473-2.349,0.344-3.555c-0.088-0.821-0.401-1.555-0.814-2.263    c-0.392-0.671-0.671-1.418-1.124-2.041c-0.702-0.967-1.563-1.819-2.256-2.792c-0.805-1.131-2.111-1.647-3.011-2.608    c-0.613-0.654-1.283-1.073-2.085-1.224c-1.715-0.323-3.483-0.755-4.988,0.637c-0.187,0.173-0.419,0.125-0.619,0.226    c-0.941,0.475-1.833,1.09-2.466,1.878c-0.653,0.813-1.4,1.547-2.082,2.318c-0.679,0.768-1.086,1.675-1.709,2.453    c-0.274,0.342-0.452,0.765-0.518,1.224c-0.13,0.907-0.418,1.795-0.256,2.836c-0.818-0.721-1.245-1.573-1.599-2.454    c-0.278-0.69,0.14-1.378,0.114-2.08c-0.051-1.377,0.424-2.668,0.732-3.985c0.139-0.594,0.096-1.223,0.329-1.797    c0.162-0.398,0.369-0.778,0.532-1.175c0.479-1.17,0.783-2.393,1.136-3.604c0.174-0.597,0.582-1.162,1.001-1.64    c0.474-0.541,0.795-1.15,1.043-1.793c0.279-0.725,0.634-1.355,1.132-1.974c0.64-0.796,1.104-1.752,1.539-2.688    c0.523-1.126,1.348-1.822,2.487-2.272c0.906-0.358,1.813-0.339,2.741-0.285c0.705,0.041,1.347-0.316,2.074-0.252    c1.395,0.123,2.811-0.039,4.192,0.335c0.324,0.088,0.688,0.104,1.022,0.062c0.604-0.077,1.147,0.065,1.68,0.315    c0.644,0.301,1.368,0.21,2.037,0.431c1.001,0.331,2,0.668,3.029,0.929c0.843,0.213,1.681,0.539,2.53,0.791    c0.184,0.055,0.291,0.148,0.323,0.379c0.088,0.628,0.395,1.167,0.767,1.675c0.154,0.21,0.302,0.442,0.38,0.687    c0.42,1.321,1.062,2.553,1.538,3.855c0.379,1.036,0.226,2.123,0.596,3.134c0.421,1.152,0.944,2.252,1.535,3.326    c0.292,0.53,0.57,1.07,0.85,1.606c0.224,0.43,0.673,0.477,0.931,0.748c0.464,0.49,1.057,0.53,1.616,0.686    c0.527,0.147,1.5-0.446,1.74-0.936c0.21-0.427,0.487-0.829,0.76-1.211c0.471-0.661,0.731-1.364,0.867-2.151    c0.064-0.366,0.073-0.764,0.342-1.089c0.255-0.308,0.408-0.708,0.365-1.094c-0.043-0.379,0.123-0.457,0.397-0.425    c1.476,0.171,2.869-0.353,4.307-0.495c0.079-0.008,0.177-0.026,0.228-0.077c0.76-0.757,1.818-0.738,2.727-1.099    c0.813-0.322,1.675-0.507,2.465-0.929c0.809-0.432,1.737-0.643,2.615-0.944c1.407-0.483,2.87-0.716,4.342-0.82    c0.379-0.027,0.719-0.091,1.084-0.16c1.135-0.215,2.295-0.09,3.428,0.047c1.207,0.146,2.396,0.447,3.589,0.703    c0.49,0.105,0.987,0.222,1.447,0.415c0.975,0.411,2.067,0.504,2.971,1.101c0.017,0.011,0.04,0.012,0.056,0.023    c0.928,0.682,0.942,0.396,0.186,1.212c-0.831,0.897-1.219,1.955-1.122,3.172c0.036,0.451,0.01,0.873-0.216,1.271    c-0.039,0.069-0.115,0.159-0.097,0.213c0.317,0.929,0.01,1.998,0.459,2.849c0.913,1.731,2.017,3.359,4.057,3.934    c0.749,0.211,1.522,0.208,2.328,0.035c0.991-0.212,1.926-0.517,2.825-0.964c0.198-0.098,0.263,0.045,0.293,0.184    c0.102,0.46,0.212,0.921,0.277,1.387c0.146,1.059,0.302,2.119,0.387,3.185C89.529,47.508,89.689,48.709,89.558,49.871z     M28.754,63.917c0.015-0.075,0.038-0.151,0.136-0.149c0.088,0.036,0.109,0.102,0.088,0.184c-0.02,0.078-0.06,0.159-0.148,0.145    C28.739,64.083,28.738,63.992,28.754,63.917z M93.005,39.5c-0.367,1.206-1.235,2.122-2.282,2.833    c-0.226,0.153-0.422,0.121-0.439-0.23c-0.013-0.261-0.009-0.547-0.113-0.775c-0.458-1.004,0.18-1.69,0.594-2.492    c0.319-0.616,0.815-1.276,0.492-2.054c-0.246-0.592-0.834-0.695-1.342-0.322c-0.181,0.133-0.315,0.392-0.551-0.116    c-0.51-1.098-0.859-2.311-1.813-3.168c-0.466-0.418-1.027-0.557-1.609-0.196c-0.386,0.239-0.641,0.629-0.563,1.181    c0.048,0.343,0.153,0.71,0.006,1.072c-0.041,0.101-0.023,0.261,0.031,0.359c0.487,0.874,1.009,1.718,2.054,2.032    c0.192,0.058,0.393,0.121,0.559,0.229c0.306,0.2,0.561,0.449,0.969,0.142c0.128-0.096,0.495-0.062,0.607,0.054    c0.152,0.156-0.078,0.369-0.186,0.527c-0.58,0.851-1.382,1.497-2.104,2.215c-0.144,0.144-0.46,0.145-0.699,0.158    c-1.212,0.067-2.4,0.454-3.639-0.078c-1.216-0.522-1.83-1.441-2.163-2.614c-0.44-1.552-0.379-3.137-0.064-4.694    c0.194-0.96,0.664-1.747,1.624-2.285c0.699-0.392,1.353-0.87,2.115-1.15c0.518-0.19,1.056-0.276,1.608-0.249    c0.96,0.018,1.918,0.093,2.847,0.321c0.951,0.234,1.768,0.716,2.371,1.535c0.256,0.347,0.591,0.641,0.917,0.93    c0.93,0.826,0.823,1.996,1.084,3.06C93.636,37.039,93.373,38.29,93.005,39.5z M87.935,36.309c-0.86-0.105-1.432-1.079-1.091-1.966    C87.17,35.061,87.774,35.546,87.935,36.309z"></path><path d="M26.523,32.395c-1.041-0.946-2.211-1.581-3.671-1.537c-0.588,0.018-1.177,0.003-1.899,0.003    c-0.439,0.26-1.029,0.35-1.592,0.679c-0.696,0.407-1.258,0.912-1.807,1.469c-0.235,0.239-0.226,0.489-0.041,0.707    c0.182,0.215,0.448,0.274,0.716,0.118c0.191-0.111,0.385-0.221,0.561-0.355c1.192-0.911,2.581-1.285,4.029-1.19    c1.908,0.126,3.148,1.408,4.198,2.859c0.222,0.306,0.453,0.56,0.754,0.77c0.166,0.116,0.306,0.277,0.54,0.138    c0.218-0.13,0.305-0.307,0.283-0.559c-0.063-0.738-0.157-1.445-0.813-1.952C27.332,33.198,26.943,32.777,26.523,32.395z"></path><path d="M36.321,33.421c-0.216-0.106-0.366,0.036-0.549,0.144c-0.766,0.453-1.109,1.28-1.573,1.947    c-0.57,0.817-1.067,1.63-1.904,2.222c-0.318,0.225-0.348,0.106-0.449-0.108c-0.06-0.128-0.05-0.267-0.047-0.412    c0.022-1.039,0.414-1.959,0.899-2.846c0.18-0.329,0.332-0.623-0.047-0.904c-0.405-0.301-0.676,0.025-0.882,0.264    c-0.839,0.974-1.469,2.051-1.417,3.403c0,0.163-0.012,0.326,0.002,0.488c0.069,0.838,0.478,1.444,1.274,1.734    c0.668,0.243,1.258-0.05,1.738-0.457c1.145-0.973,1.965-2.218,2.731-3.496c0.26-0.434,0.477-0.888,0.496-1.413    C36.602,33.739,36.551,33.534,36.321,33.421z"></path><path d="M16.635,30.218c-0.311-0.136-0.554,0.07-0.696,0.333c-0.484,0.9-1.263,1.614-1.601,2.61    c-0.105,0.308-0.351,0.571-0.546,0.845c-0.099,0.139-0.241,0.225-0.424,0.16c-0.215-0.076-0.08-0.249-0.076-0.365    c0.028-0.759,0.209-1.474,0.715-2.067c0.188-0.221,0.286-0.477,0.409-0.731c0.23-0.475,0.053-0.803-0.353-1.003    c-0.397-0.196-0.705,0.05-0.935,0.357c-0.964,1.286-1.405,2.747-1.409,4.345c-0.002,0.783,0.47,1.27,1.255,1.325    c0.519-0.044,0.946-0.306,1.318-0.65c0.672-0.621,1.222-1.354,1.676-2.137c0.41-0.708,0.699-1.487,1.033-2.239    C17.174,30.613,16.951,30.356,16.635,30.218z"></path></g></g></svg></g></g></svg>
