<?xml version="1.0" encoding="UTF-8"?>
<svg width="512px" height="512px" viewBox="0 0 512 512" version="1.1" xmlns="http://www.w3.org/2000/svg" xmlns:xlink="http://www.w3.org/1999/xlink">
    <!-- Generator: Sketch 54.1 (76490) - https://sketchapp.com -->
    <title>Icon</title>
    <desc>Created with Sketch.</desc>
    <defs>
        <rect id="path-1" x="0" y="0" width="512" height="512"></rect>
        <filter x="-1.4%" y="-1.0%" width="102.7%" height="102.7%" filterUnits="objectBoundingBox" id="filter-2">
            <feOffset dx="0" dy="2" in="SourceAlpha" result="shadowOffsetOuter1"></feOffset>
            <feGaussianBlur stdDeviation="2" in="shadowOffsetOuter1" result="shadowBlurOuter1"></feGaussianBlur>
            <feColorMatrix values="0 0 0 0 0   0 0 0 0 0   0 0 0 0 0  0 0 0 0.5 0" type="matrix" in="shadowBlurOuter1"></feColorMatrix>
        </filter>
        <filter x="-2.9%" y="-3.6%" width="105.9%" height="108.3%" filterUnits="objectBoundingBox" id="filter-3">
            <feOffset dx="0" dy="2" in="SourceAlpha" result="shadowOffsetOuter1"></feOffset>
            <feGaussianBlur stdDeviation="2" in="shadowOffsetOuter1" result="shadowBlurOuter1"></feGaussianBlur>
            <feColorMatrix values="0 0 0 0 0.941176471   0 0 0 0 0.635294118   0 0 0 0 0.00784313725  0 0 0 0.436707823 0" type="matrix" in="shadowBlurOuter1" result="shadowMatrixOuter1"></feColorMatrix>
            <feMerge>
                <feMergeNode in="shadowMatrixOuter1"></feMergeNode>
                <feMergeNode in="SourceGraphic"></feMergeNode>
            </feMerge>
        </filter>
        <path d="M184.449856,30.4004781 C185.661596,31.2628922 186.862754,32.6038409 187.296652,33.9763414 C188.513685,37.8309117 190.709634,41.2016887 192.275901,44.8669485 C193.265401,47.186001 195.42431,48.9791913 195.434893,51.7136749 C195.450768,55.2685037 196.70484,58.6182462 197.562054,61.9574715 C199.408768,69.1144566 200.472348,76.4607522 202.964618,83.4704959 C205.303436,90.0542912 208.219022,96.143776 214.198354,100.266536 C215.754038,101.334036 220.315263,101.249898 220.802076,99.9247255 C221.638124,97.6687765 223.410758,96.0701553 224.437298,93.9824822 C227.395215,87.9666181 229.771073,81.7351505 231.51725,75.2670449 C231.988188,73.5316995 233.072934,71.7122161 232.829528,70.0873018 C232.279218,66.4798868 233.147014,62.9776442 232.977688,59.4280741 C232.649619,52.5235028 231.215637,46.3341042 224.712453,42.1797924 C221.087814,39.8659985 217.119231,37.7520323 214.362388,34.3654795 C210.933533,30.1533229 206.319394,28.076167 201.488305,26.1830629 C200.636383,25.8517697 199.911455,26.056856 199.064824,26.1304767 C193.757506,26.5932355 188.735925,30.3689264 183,27.4451323 C183.301612,28.7808224 183.423316,29.6747882 184.449856,30.4004781 Z" id="path-4"></path>
        <filter x="-8.0%" y="-2.7%" width="116.0%" height="110.7%" filterUnits="objectBoundingBox" id="filter-5">
            <feOffset dx="0" dy="2" in="SourceAlpha" result="shadowOffsetOuter1"></feOffset>
            <feGaussianBlur stdDeviation="1" in="shadowOffsetOuter1" result="shadowBlurOuter1"></feGaussianBlur>
            <feColorMatrix values="0 0 0 0 1   0 0 0 0 1   0 0 0 0 1  0 0 0 0.190832605 0" type="matrix" in="shadowBlurOuter1"></feColorMatrix>
        </filter>
        <path d="M123.804661,245 C123.660661,247.49359 121.356661,248.865385 122.376661,251.961538 C122.380661,251.974359 122.380661,251.987179 122.384661,252 C122.384661,252 122.388661,251.99359 122.388661,251.987179 C123.120661,249.788462 124.180661,247.769231 123.804661,245 Z" id="path-6"></path>
        <filter x="-72.1%" y="-28.6%" width="244.2%" height="214.3%" filterUnits="objectBoundingBox" id="filter-7">
            <feOffset dx="0" dy="2" in="SourceAlpha" result="shadowOffsetOuter1"></feOffset>
            <feGaussianBlur stdDeviation="1" in="shadowOffsetOuter1" result="shadowBlurOuter1"></feGaussianBlur>
            <feColorMatrix values="0 0 0 0 1   0 0 0 0 1   0 0 0 0 1  0 0 0 0.190832605 0" type="matrix" in="shadowBlurOuter1"></feColorMatrix>
        </filter>
        <path d="M122.460514,226.550253 C120.363131,224.390675 119.242024,221.250446 117.804431,218.485329 C115.106264,213.287338 112.38664,208.046477 111.657115,202.14649 C110.954412,196.47157 110.33217,195.812444 104.565709,196.144686 C103.374867,196.21435 102.167934,196.053588 100.971728,196 C99.3302982,196.117893 97.6942324,196.262579 96.0528024,196.34296 C95.108712,196.38583 94.3362744,196.621615 93.928599,197.559397 C91.8204879,202.430504 89.5568166,207.237306 87.6471791,212.183435 C86.3597831,215.51658 85.3620511,218.989052 84.573521,222.4776 C82.4546817,231.817907 76.7686825,239.652405 73.748666,248.617599 C72.214519,253.177898 69.7416458,257.416672 67.8695574,261.869796 C65.1284766,268.38604 62.7897072,275.084482 59.817968,281.49355 C57.5167475,286.455756 57.5542966,291.718052 57.0125174,296.88389 C56.8569571,298.378982 58.1604455,301.444189 60.4133886,300.945825 C63.7177051,300.222393 67.2687726,300.742192 70.3746155,298.502234 C78.5656728,292.580811 86.0164774,285.946674 91.6756559,277.528073 C95.2213592,272.260419 99.432217,267.432182 102.715077,262.06807 C105.397152,257.695327 110.133697,255.176713 111.919959,250.016233 C114.011977,243.97156 118.850441,239.384467 121.961648,233.800646 C123.436789,231.142704 125.437617,229.610101 122.460514,226.550253 Z" id="path-8"></path>
        <filter x="-6.0%" y="-1.9%" width="111.9%" height="107.6%" filterUnits="objectBoundingBox" id="filter-9">
            <feOffset dx="0" dy="2" in="SourceAlpha" result="shadowOffsetOuter1"></feOffset>
            <feGaussianBlur stdDeviation="1" in="shadowOffsetOuter1" result="shadowBlurOuter1"></feGaussianBlur>
            <feColorMatrix values="0 0 0 0 1   0 0 0 0 1   0 0 0 0 1  0 0 0 0.190832605 0" type="matrix" in="shadowBlurOuter1"></feColorMatrix>
        </filter>
        <path d="M345.848663,244.878804 C344.645715,239.11119 341.565519,234.099809 339.138045,228.864754 C337.109756,224.492444 333.268952,221.217206 328.397821,220.279903 C325.932586,219.805925 323.424196,219.204133 321.255652,218.304109 C319.16263,217.436037 318.731079,218.607667 318.423599,219.550297 C317.118157,223.549815 315.715617,227.490752 313.935469,231.314525 C311.421685,236.704023 309.35024,242.306544 306.599103,247.568227 C304.117685,252.308002 300.751587,256.595102 298.183859,261.292273 C295.238524,266.68177 291.775327,271.757057 288.948668,277.242415 C284.590004,285.715429 279.29811,293.677187 276.644071,302.991644 C274.858529,309.259864 276.444479,311.635077 285.749797,310.857541 C289.315487,310.367586 294.380816,306.794115 299.284314,303.423017 C304.241756,300.009314 307.920727,295.06184 311.799292,290.428577 C315.489053,286.018988 319.340645,281.721237 323.100533,277.386206 C328.678329,270.952893 331.763918,262.772787 338.296521,257.138312 C340.837277,254.949495 341.657224,251.461233 344.133248,249.426858 C345.848663,248.015576 346.269425,246.881226 345.848663,244.878804 Z" id="path-10"></path>
        <filter x="-5.7%" y="-2.2%" width="111.4%" height="108.6%" filterUnits="objectBoundingBox" id="filter-11">
            <feOffset dx="0" dy="2" in="SourceAlpha" result="shadowOffsetOuter1"></feOffset>
            <feGaussianBlur stdDeviation="1" in="shadowOffsetOuter1" result="shadowBlurOuter1"></feGaussianBlur>
            <feColorMatrix values="0 0 0 0 1   0 0 0 0 1   0 0 0 0 1  0 0 0 0.190832605 0" type="matrix" in="shadowBlurOuter1"></feColorMatrix>
        </filter>
        <path d="M46.8768743,154.276134 C51.141243,152.329878 55.2765514,149.48781 58.2825818,145.79259 C60.670198,142.859875 63.3213125,140.215099 66.0853548,137.751618 C71.3122985,133.0966 76.2972541,128.372263 78.4428823,121.493713 C79.3463047,118.587659 79.4430999,115.942883 76.4747121,113.778007 C74.8291928,112.578259 72.7696049,111.522482 71.8930701,109.576226 C70.1722655,105.753032 67.322183,102.532378 66.0853548,98 C61.234837,102.217777 56.5402672,105.518415 52.7437422,110.168101 C49.812997,113.756678 46.4574282,117.281268 42.9082688,120.475261 C41.0852916,122.117581 38.9342859,124.111828 38.3857795,126.303366 C36.8370554,132.499392 34.1859409,138.444806 34.0031054,144.987426 C33.831025,151.503385 40.8433034,157.027554 46.8768743,154.276134 Z" id="path-12"></path>
        <filter x="-8.9%" y="-3.5%" width="117.8%" height="114.0%" filterUnits="objectBoundingBox" id="filter-13">
            <feOffset dx="0" dy="2" in="SourceAlpha" result="shadowOffsetOuter1"></feOffset>
            <feGaussianBlur stdDeviation="1" in="shadowOffsetOuter1" result="shadowBlurOuter1"></feGaussianBlur>
            <feColorMatrix values="0 0 0 0 1   0 0 0 0 1   0 0 0 0 1  0 0 0 0.190832605 0" type="matrix" in="shadowBlurOuter1"></feColorMatrix>
        </filter>
        <path d="M65.5143044,150.930847 C63.8520658,151.946914 61.6481392,153.099468 64.0804245,156.12745 C65.8594977,158.346622 67.9625216,159.317194 70.2089335,160.596124 C75.4346293,163.568501 80.8727517,163.416849 86.4808155,162.112643 C88.3554807,161.677908 90.0442727,160.636565 92.1685392,160.960089 C92.9014112,161.0713 94.7335911,160.591069 93.6820792,159.089716 C91.3931819,155.834257 89.768118,152.159227 87.3783181,149.055419 C84.6804996,145.547207 83.225377,141.513268 80.8196451,138 C75.169096,141.841847 71.3188628,147.372084 65.5143044,150.930847 Z" id="path-14"></path>
        <filter x="-12.9%" y="-8.0%" width="125.8%" height="132.0%" filterUnits="objectBoundingBox" id="filter-15">
            <feOffset dx="0" dy="2" in="SourceAlpha" result="shadowOffsetOuter1"></feOffset>
            <feGaussianBlur stdDeviation="1" in="shadowOffsetOuter1" result="shadowBlurOuter1"></feGaussianBlur>
            <feColorMatrix values="0 0 0 0 1   0 0 0 0 1   0 0 0 0 1  0 0 0 0.190832605 0" type="matrix" in="shadowBlurOuter1"></feColorMatrix>
        </filter>
        <path d="M134.492721,145.932527 C133.446586,141.774569 132.836341,137.394347 130.38991,133.691758 C126.859203,128.352008 123.442918,122.930941 119.182096,118.09535 C114.518076,112.793546 110.791219,106.66232 104.999335,102.357993 C102.242333,100.30883 100.090127,100.531094 97.8888845,103.350048 C96.3414761,105.328738 95.0283584,107.529691 92.84891,108.912063 C90.1845342,110.608857 88.1031609,112.527914 87.383943,115.894397 C85.542309,124.562682 84.7359131,132.921967 90.2172259,140.842145 C91.5303436,142.739519 93.2466593,144.528471 94.0258121,146.772792 C95.4860426,150.995803 98.5154759,154.112916 101.479526,157.202924 C105.102859,160.986829 109.532588,163.58352 114.191159,166.147684 C118.228587,168.370322 122.16794,167.844478 125.943835,167.996268 C130.874837,168.191427 135.898466,160.68867 134.863228,155.728394 C134.18215,152.448649 135.435333,149.190588 134.492721,145.932527 Z" id="path-16"></path>
        <filter x="-8.2%" y="-3.0%" width="116.3%" height="111.9%" filterUnits="objectBoundingBox" id="filter-17">
            <feOffset dx="0" dy="2" in="SourceAlpha" result="shadowOffsetOuter1"></feOffset>
            <feGaussianBlur stdDeviation="1" in="shadowOffsetOuter1" result="shadowBlurOuter1"></feGaussianBlur>
            <feColorMatrix values="0 0 0 0 1   0 0 0 0 1   0 0 0 0 1  0 0 0 0.190832605 0" type="matrix" in="shadowBlurOuter1"></feColorMatrix>
        </filter>
        <path d="M439,96 C438.054074,92.1190234 434.505383,89.6520855 432.59003,86 C430.580672,90.5066124 433.947228,95.4608342 439,96 Z" id="path-18"></path>
        <filter x="-57.1%" y="-20.0%" width="214.3%" height="180.0%" filterUnits="objectBoundingBox" id="filter-19">
            <feOffset dx="0" dy="2" in="SourceAlpha" result="shadowOffsetOuter1"></feOffset>
            <feGaussianBlur stdDeviation="1" in="shadowOffsetOuter1" result="shadowBlurOuter1"></feGaussianBlur>
            <feColorMatrix values="0 0 0 0 1   0 0 0 0 1   0 0 0 0 1  0 0 0 0.190832605 0" type="matrix" in="shadowBlurOuter1"></feColorMatrix>
        </filter>
        <path d="M463.370619,77.9042095 C461.615349,76.3608408 459.800671,74.7907703 458.418059,72.9376598 C455.166761,68.5692322 450.754284,65.9898306 445.612696,64.7401826 C440.600728,63.5225769 435.426734,63.1220487 430.236538,63.0259219 C427.255281,62.8817318 424.344235,63.3410041 421.552007,64.3556756 C417.436576,65.8563212 413.899034,68.4036806 410.129256,70.497108 C404.944461,73.3755706 402.406072,77.5731062 401.358311,82.6998672 C399.65705,91.0148326 399.322199,99.4846689 401.703964,107.767592 C403.50244,114.031853 406.818548,118.939659 413.385955,121.727335 C420.077581,124.563075 426.493765,122.50169 433.039568,122.143884 C434.330366,122.074459 436.037028,122.063779 436.814747,121.300105 C440.714145,117.465715 445.045609,114.010492 448.178089,109.471172 C448.761379,108.627393 449.998168,107.489893 449.182643,106.656794 C448.577751,106.03731 446.595647,105.855738 445.904341,106.368414 C443.700803,108.007909 442.328992,106.678155 440.670938,105.61008 C439.774401,105.03332 438.694235,104.696876 437.651875,104.387134 C432.002609,102.710256 429.188778,98.2029787 426.558575,93.5354901 C426.26693,93.0121332 426.169715,92.1523327 426.391149,91.6182951 C427.190471,89.685079 426.617984,87.725161 426.358744,85.893412 C425.937479,82.9455244 427.314691,80.8627778 429.39941,79.5864279 C432.542692,77.6585522 435.577957,78.4008645 438.089342,80.6331416 C443.241732,85.2098439 445.126621,91.68772 447.881044,97.5514528 C449.155639,100.264364 449.87935,98.8812065 450.8569,98.1709364 C453.600521,96.1789762 456.776208,96.7290349 458.104811,99.8905375 C459.849279,104.04001 457.165067,107.569998 455.447604,110.85967 C453.20626,115.137311 449.765933,118.800809 452.239512,124.167887 C452.801198,125.390833 452.779595,126.91284 452.849806,128.306678 C452.94702,130.18115 454.005583,130.352042 455.220769,129.534965 C460.875436,125.737957 465.568756,120.846173 467.545459,114.40568 C469.532963,107.943825 470.953381,101.268355 469.219715,94.2564408 C467.8155,88.5636 468.393389,82.3153601 463.370619,77.9042095 Z" id="path-20"></path>
        <filter x="-5.7%" y="-3.0%" width="111.4%" height="111.9%" filterUnits="objectBoundingBox" id="filter-21">
            <feOffset dx="0" dy="2" in="SourceAlpha" result="shadowOffsetOuter1"></feOffset>
            <feGaussianBlur stdDeviation="1" in="shadowOffsetOuter1" result="shadowBlurOuter1"></feGaussianBlur>
            <feColorMatrix values="0 0 0 0 1   0 0 0 0 1   0 0 0 0 1  0 0 0 0.190832605 0" type="matrix" in="shadowBlurOuter1"></feColorMatrix>
        </filter>
        <path d="M126.447382,243.074899 C126.531382,242.746899 126.447382,242.486899 126.095382,242.338899 C125.703382,242.330899 125.611382,242.634899 125.551382,242.934899 C125.491382,243.234899 125.495382,243.598899 125.859382,243.654899 C126.207382,243.710899 126.371382,243.386899 126.447382,243.074899 Z" id="path-22"></path>
        <filter x="-61.9%" y="-16.5%" width="223.9%" height="233.1%" filterUnits="objectBoundingBox" id="filter-23">
            <feOffset dx="0" dy="2" in="SourceAlpha" result="shadowOffsetOuter1"></feOffset>
            <feGaussianBlur stdDeviation="1" in="shadowOffsetOuter1" result="shadowBlurOuter1"></feGaussianBlur>
            <feColorMatrix values="0 0 0 0 1   0 0 0 0 1   0 0 0 0 1  0 0 0 0.190832605 0" type="matrix" in="shadowBlurOuter1"></feColorMatrix>
        </filter>
        <path d="M25.6986583,60.6578936 C29.2344693,55.7077964 33.3800873,51.2286273 35.5625545,45.3848368 C36.3809798,43.1907396 37.7236251,41.3016755 39.3818723,39.4714774 C41.8211004,36.7796948 43.8912349,33.7079588 45.4531967,30.2616208 C46.8118896,27.2701566 46.9028257,23.6632749 49.5560213,21.2711739 C51.3640456,19.6443311 52.6264532,17.5733175 54.1616691,15.7431193 C56.3869299,13.0834455 58.3233347,9.89932887 62.1319541,9.01098709 C62.9450301,8.81833466 63.8757883,8.55076184 63.9667244,7.42160452 C64.1806918,6.31385303 63.3141239,6.65634624 62.7578087,6.46369381 C58.1361133,4.83149958 54.6270482,7.91928997 50.8023813,9.38023759 C46.0737021,11.1836784 41.6071331,13.6828086 36.8570572,15.4059776 C28.8974706,18.2904126 21.3444221,21.4263661 14.7167824,27.1898848 C8.81128273,32.327283 5.00801253,38.1336133 6.2276266,45.5293261 C7.46328823,53.0213652 8.59196616,60.8987091 13.4597241,67.3151055 C14.2781493,68.3960997 14.8291153,69.4075249 14.7863218,70.8470667 C14.7435284,72.3294202 15.5566044,73.8117736 17.0490269,73.9883717 C18.4023706,74.1489154 18.8249562,72.6130474 19.1993991,71.4838901 C20.5473936,67.3900259 23.2808269,64.0453656 25.6986583,60.6578936 Z" id="path-24"></path>
        <filter x="-6.9%" y="-2.9%" width="113.8%" height="111.8%" filterUnits="objectBoundingBox" id="filter-25">
            <feOffset dx="0" dy="2" in="SourceAlpha" result="shadowOffsetOuter1"></feOffset>
            <feGaussianBlur stdDeviation="1" in="shadowOffsetOuter1" result="shadowBlurOuter1"></feGaussianBlur>
            <feColorMatrix values="0 0 0 0 1   0 0 0 0 1   0 0 0 0 1  0 0 0 0.190832605 0" type="matrix" in="shadowBlurOuter1"></feColorMatrix>
        </filter>
        <polygon id="path-26" points="121.996 251.002 121.992 251.002 122.008 250.998"></polygon>
        <filter x="-50.2%" y="-0.1%" width="200.4%" height="200.1%" filterUnits="objectBoundingBox" id="filter-27">
            <feOffset dx="0" dy="2" in="SourceAlpha" result="shadowOffsetOuter1"></feOffset>
            <feGaussianBlur stdDeviation="1" in="shadowOffsetOuter1" result="shadowBlurOuter1"></feGaussianBlur>
            <feColorMatrix values="0 0 0 0 1   0 0 0 0 1   0 0 0 0 1  0 0 0 0.190832605 0" type="matrix" in="shadowBlurOuter1"></feColorMatrix>
        </filter>
        <path d="M446.037877,132.43646 C445.698425,129.968528 445.109687,127.527076 444.568685,125.09092 C444.404262,124.354777 444.059506,123.59745 443.014629,124.116458 C438.246384,126.483766 433.287197,128.093747 428.030988,129.221794 C423.75601,130.132704 419.656062,130.153888 415.683408,129.036434 C404.863363,125.991239 399.007809,117.364068 394.165309,108.202003 C391.783838,103.695114 393.412149,98.0336989 391.730798,93.1137227 C391.635328,92.8277392 392.033123,92.3510999 392.245281,91.9856765 C393.443972,89.8778718 393.581875,87.6429634 393.390933,85.2544712 C392.87645,78.8039534 394.93438,73.2007942 399.341958,68.4555858 C403.351739,64.1340566 403.277484,65.6487102 398.355424,62.0368439 C398.270561,61.973292 398.143266,61.973292 398.058403,61.9150361 C393.263638,58.7533291 387.471732,58.2660979 382.300387,56.0841494 C379.865877,55.056727 377.224513,54.442392 374.62558,53.8863128 C368.30328,52.530539 361.991587,50.9364455 355.589727,50.1632307 C349.580359,49.4376799 343.427784,48.7756809 337.407808,49.9143191 C335.471869,50.2797425 333.663224,50.618686 331.658333,50.7616778 C323.850928,51.3124609 316.091259,52.546427 308.62861,55.1043909 C303.971748,56.7037804 299.049688,57.8159386 294.758798,60.103807 C290.568682,62.3387155 285.991379,63.3184739 281.684577,65.0237832 C276.863292,66.9356362 271.25172,66.8350123 267.220722,70.844078 C266.950221,71.1141736 266.430435,71.2095014 266.011423,71.2518693 C258.384352,72.0039001 250.995959,74.7789998 243.167338,73.8733852 C241.708754,73.7039135 240.833603,74.1170008 241.061673,76.1241816 C241.295046,78.1737304 240.478239,80.286831 239.125733,81.9179964 C237.698972,83.6391937 237.651237,85.7469984 237.311785,87.6853313 C236.590448,91.8532767 235.211423,95.5763588 232.713265,99.0770093 C231.265289,101.100078 229.796096,103.229067 228.682268,105.490455 C227.404018,108.085491 222.248585,111.226014 219.453406,110.447503 C216.488502,109.621329 213.343263,109.409489 210.882234,106.814453 C209.51912,105.373943 207.137649,105.125032 205.944262,102.853051 C204.459158,100.0144 202.984662,97.1598603 201.43591,94.3476888 C198.301279,88.6597938 195.527317,82.839499 193.294357,76.7332207 C191.331897,71.3789731 192.143401,65.6222303 190.133206,60.1355829 C187.608529,53.2402019 184.203397,46.7155402 181.975741,39.7195353 C181.562033,38.4220173 180.77705,37.1933473 179.960242,36.081189 C177.987175,33.3908253 176.353561,30.5309898 175.892118,27.2104031 C175.722391,25.992325 175.149566,25.4945018 174.178944,25.2032223 C169.675896,23.8686324 165.231191,22.1474351 160.759967,21.0140929 C155.296905,19.6318391 150.003569,17.8470899 144.694321,16.0941167 C141.140679,14.9237025 137.305928,15.4056378 133.890188,13.8115443 C131.063186,12.4928424 128.183145,11.7355156 124.979563,12.1433069 C123.208046,12.3710346 121.27741,12.2810027 119.558933,11.8149555 C112.234187,9.8342546 104.723802,10.6922052 97.3248011,10.0407983 C93.4688341,9.70185481 90.0637023,11.5925238 86.3244221,11.3753882 C81.4023624,11.0894046 76.5916856,10.9940768 71.7863127,12.8847458 C65.7451209,15.267942 61.3693675,18.9539522 58.595405,24.9172387 C56.2881895,29.8742869 53.8271597,34.9425508 50.4326358,39.1528642 C47.7912719,42.431083 45.9083719,45.7675577 44.4285716,49.6071516 C43.1131936,53.0124742 41.4106277,56.2377331 38.8965584,59.1028646 C36.6742061,61.6343486 34.515501,64.6318798 33.5873109,67.7882908 C31.7150188,74.1964407 30.1026199,80.6787344 27.562031,86.8750446 C26.6974882,88.9828493 25.5942679,90.9900301 24.740333,93.0978347 C23.5045141,96.1377339 23.7325837,99.4689127 22.9953355,102.614732 C21.3670248,109.589553 18.8423477,116.426678 19.1128488,123.719258 C19.2507513,127.44234 17.0337029,131.080687 18.5081992,134.734921 C20.3910992,139.400689 22.6505792,143.912874 26.9892051,147.731284 C26.1299662,142.218157 27.6575019,137.51002 28.3470146,132.711852 C28.6970749,130.280992 29.6464808,128.040787 31.0944574,126.229558 C34.3988143,122.109277 36.5522154,117.305812 40.158897,113.238491 C43.7761865,109.155281 47.7382324,105.262727 51.2017076,100.962382 C54.5591039,96.7891409 59.2902216,93.5321061 64.2812325,91.01651 C65.3420212,90.4816149 66.5778401,90.7358225 67.5643736,89.8196159 C75.5468087,82.4475956 84.924181,84.735464 94.0204443,86.4460693 C98.279511,87.245764 101.827849,89.4647845 105.079167,92.928363 C109.852716,98.0178109 116.779666,100.750543 121.049341,106.740309 C124.724974,111.893309 129.291669,116.405494 133.015038,121.526718 C135.417724,124.831416 136.897524,128.782226 138.97667,132.335837 C141.167199,136.085399 142.827333,139.972657 143.29408,144.320666 C143.978289,150.707632 144.795096,156.91983 141.469524,163.147916 C140.026851,165.854168 138.812248,168.34858 136.234531,169.921489 C132.680889,172.08755 129.599298,174.444266 124.629503,174.137098 C115.580975,173.581019 107.906169,170.721184 101.276239,164.757897 C100.024508,163.635147 99.122838,164.011162 97.8445876,164.726121 C91.6814051,168.179108 85.4704872,171.409663 77.9494952,169.503106 C70.5557978,167.633621 62.9022072,166.129559 58.8924258,158.630435 C57.2057717,155.47932 55.3440875,157.232293 54.2196515,158.2809 C51.6154152,160.71176 48.7035502,161.813326 45.2559868,162.062238 C44.2217178,162.136381 42.9646832,162.120493 44.0572956,164.154154 C49.1225617,173.570427 57.1527323,179.27421 66.9119885,182.790749 C71.3460854,184.390138 75.6051521,186.423799 80.3256619,187.361189 C84.7756706,188.24562 89.3158463,188.738147 93.765855,189.585506 C95.4790288,189.913857 97.2664577,191.232559 99.4675943,190.618224 C104.071417,189.326002 108.595681,187.784869 113.353319,186.895142 C116.763754,186.259623 120.487123,186.095447 123.584626,184.63905 C128.161929,182.483581 133.158244,181.334351 137.502174,178.718131 C140.636805,176.827462 144.545811,176.859238 147.505412,175.122153 C153.318534,171.711534 159.587795,169.41837 165.581251,166.484391 C166.366235,166.097783 167.039836,165.981271 167.591446,166.717414 C168.143056,167.448261 167.861947,168.104964 167.289121,168.740483 C166.429882,169.699057 165.395613,170.599376 164.838699,171.727422 C163.035358,175.37636 160.128797,177.521237 156.506204,179.27421 C154.114125,180.428736 151.361379,180.90008 149.298144,182.229374 C144.471556,185.332825 139.02971,187.01695 133.768198,188.420388 C128.379391,189.855602 123.849823,192.980237 118.577703,194.351898 C116.917569,194.78617 117.081991,195.813592 117.368404,197.026374 C118.349634,201.16784 120.625025,204.795594 122.28516,208.640484 C124.534032,213.846444 127.928556,218.549284 130.495664,223.633436 C131.190481,225.01569 132.346741,225.640617 133.20598,226.683927 C133.773502,227.372406 134.706996,227.621318 135.290429,226.461496 C137.162721,222.754301 139.162308,219.100067 139.910164,214.94801 C141.177807,207.883157 143.941161,201.321423 146.741644,194.780874 C147.05988,194.039435 147.760001,193.329772 148.826093,193.58398 C149.791411,193.811707 150.507444,194.595514 150.396061,195.411097 C149.780803,199.923282 149.57395,204.604938 148.104757,208.841731 C146.794683,212.628365 145.505825,216.505031 143.7237,220.191041 C142.010526,223.73406 141.702897,227.960261 139.979116,231.497984 C135.725353,240.220482 133.078685,249.530835 129.434876,258.470469 C128.119498,261.70632 127.286779,265.635946 125.207633,267.944998 C122.25864,271.223217 121.27741,275.311722 120.492427,278.738229 C118.731517,286.406825 115.771917,293.657037 113.257848,300.970802 C111.459811,306.197945 111.709096,310.810754 112.515296,315.73073 C113.088122,319.231381 117.257021,322.3772 120.285573,321.725793 C122.412454,321.265041 124.496904,320.560675 126.432844,319.263157 C129.694769,317.086504 132.145191,313.961869 135.380596,311.869952 C138.849376,309.624452 141.777152,306.743432 144.747361,304.021293 C152.597197,296.813448 159.221823,288.424597 166.03739,280.247586 C170.678341,274.681499 175.255644,269.057156 179.907203,263.496365 C181.265013,261.875791 182.893323,260.562386 184.129142,258.740564 C185.014901,257.43775 185.741541,255.578857 187.571401,254.885083 C190.196854,253.889436 191.623614,251.45328 193.389828,249.536131 C196.407772,246.257912 198.810458,242.407726 201.881441,239.187763 C206.898972,233.923548 212.271867,229.035347 216.117226,222.717229 C219.071523,217.860805 219.347328,217.887285 224.333035,220.487617 C225.993169,221.350864 227.669215,221.059584 229.308134,221.350864 C236.330555,222.579534 243.474967,223.204461 250.523908,222.219406 C256.649963,221.361456 262.887401,220.598833 268.695219,218.072645 C269.527938,217.707221 269.819655,216.806903 270.758453,216.674503 C279.297802,215.488201 286.617244,210.536449 295.294496,209.217747 C301.102314,208.333316 306.79875,207.157606 312.659607,207.554805 C319.40092,208.015557 325.606534,210.721808 332.045521,212.495966 C335.349878,213.406876 338.139752,215.451129 340.66443,217.119366 C346.997338,221.292608 350.116057,228.362757 353.049138,235.252842 C357.302901,245.246378 355.12298,254.98041 351.564034,264.502603 C349.532623,269.930995 346.604846,275.020443 344.340062,280.369394 C342.393515,284.971611 340.293153,289.45202 337.938203,293.884765 C335.71585,298.063302 332.342542,301.415665 330.480858,305.790154 C328.242594,311.059666 325.654269,316.180889 323.267495,321.397441 C322.259745,323.60587 322.540854,325.787818 323.988831,327.710263 C325.521671,329.743924 327.823582,328.833013 329.605707,328.557622 C340.908411,326.815241 350.296391,321.254449 357.949982,312.982111 C360.71864,309.989875 363.651721,307.061192 366.637841,304.466156 C372.854063,299.064245 378.099663,292.804382 383.91809,287.07412 C386.32608,284.701515 387.68389,281.534512 390.03884,279.341972 C393.794033,275.841321 396.207327,271.435056 399.33135,267.526615 C401.442319,264.878619 402.572059,261.690432 405.107344,259.185428 C408.480652,255.848953 411.509204,251.908735 413.731557,247.719606 C417.449621,240.723601 421.830678,234.209531 426.423894,227.806677 C428.518951,224.888586 431.308826,222.357102 432.894705,219.200691 C435.451206,214.100651 437.206811,208.608708 439.423859,203.3339 C442.165998,196.798647 444.208016,190.067441 445.740856,183.156172 C446.84938,178.146164 448.175366,173.088492 448.737584,168.078484 C449.432401,161.924542 448.58377,155.569352 448.079895,149.325378 C447.639668,143.658667 446.812253,138.044916 446.037877,132.43646 Z M63.9046525,68.1378263 C62.1331353,72.115116 60.6055996,76.2459894 58.4256788,79.9955515 C56.0176884,84.1423129 53.0952155,88.0242748 49.5362693,91.3130856 C47.5632023,93.1349067 45.2984184,94.5171605 42.5456716,94.7554801 C38.3820759,94.4642006 35.8786145,91.8850527 35.8892224,87.7382912 C35.9104382,79.2700006 38.2494773,71.5378529 43.3624789,64.7272077 C44.582386,63.1013382 46.2160006,61.7985243 48.3216662,62.8365387 C50.4750673,63.901033 51.4138653,65.6381182 50.1939583,68.1484183 C49.5415732,69.4936001 49.0217868,70.849374 48.0246454,72.0197881 C45.3461539,75.1550152 44.3861401,78.9469451 44.2323257,82.9666028 C44.2111099,83.5809378 43.4950775,84.4971444 44.6354254,84.8996397 C45.6060471,85.2438792 46.364511,84.7884239 46.8842975,84.0522811 C47.9185665,82.6011794 49.2233366,81.2083336 49.7802507,79.5771682 C51.5729836,74.3023605 55.7047557,70.5210225 58.2718644,65.75463 C59.0250244,64.3564883 60.3138827,63.265514 61.9634091,63.9910648 C63.6447593,64.7060237 64.8275387,66.0670935 63.9046525,68.1378263 Z M123.892255,94.8878799 C122.651132,95.6293187 121.903276,94.7713681 121.028125,94.1570331 C119.431638,93.0448748 118.206427,91.699693 117.028952,90.0791195 C111.454507,82.3946357 104.882921,75.6051744 94.7629964,74.9378795 C87.082886,74.4347603 79.7157084,76.4154612 73.3934076,81.2401095 C72.4652175,81.9497724 71.4309485,82.5323315 70.4178952,83.1201865 C68.9964384,83.9463612 67.5855894,83.6338977 66.6202716,82.4952595 C65.644346,81.3407334 65.5913066,80.0167355 66.8377333,78.7509935 C69.7495984,75.8011261 72.7304147,73.1266504 76.4219594,70.9711818 C79.4027757,69.2288005 82.5374064,68.7521613 84.8658376,67.3752035 C88.6952849,67.3752035 91.8193077,67.4546433 94.9380265,67.3593155 C102.681784,67.1262919 108.887398,70.4892465 114.408803,75.4992546 C116.63646,77.5223234 118.704998,79.7519359 121.075861,81.584349 C124.555248,84.2694167 125.053818,88.0136828 125.387967,91.9221246 C125.509957,93.2620105 125.048514,94.199401 123.892255,94.8878799 Z M165.194063,91.4137094 C161.131243,98.1766907 156.782009,104.775496 150.708993,109.928496 C148.168404,112.083965 145.033774,113.63569 141.490739,112.348764 C137.2688,110.812927 135.099487,107.603556 134.733515,103.165515 C134.664564,102.307564 134.722907,101.444318 134.722907,100.581071 C134.447102,93.4208902 137.788587,87.7224033 142.238596,82.5588114 C143.331208,81.2930694 144.763273,79.5665762 146.916674,81.1606696 C148.926868,82.6488433 148.115365,84.2058648 147.165959,85.9482461 C144.593546,90.6457906 142.514401,95.5181029 142.397714,101.020638 C142.381802,101.788557 142.328763,102.5247 142.646999,103.202587 C143.182697,104.335929 143.341816,104.966152 145.02847,103.774554 C149.467871,100.639327 152.109235,96.3389816 155.127178,92.0068605 C157.593512,88.4744341 159.407461,84.099945 163.470282,81.6955648 C164.440903,81.1235977 165.236495,80.3715669 166.382147,80.932942 C167.59675,81.5313891 167.867251,82.6117713 167.824819,83.9198813 C167.724045,86.7108689 166.573089,89.115249 165.194063,91.4137094 Z" id="path-28"></path>
        <filter x="-0.9%" y="-0.6%" width="101.9%" height="102.5%" filterUnits="objectBoundingBox" id="filter-29">
            <feOffset dx="0" dy="2" in="SourceAlpha" result="shadowOffsetOuter1"></feOffset>
            <feGaussianBlur stdDeviation="1" in="shadowOffsetOuter1" result="shadowBlurOuter1"></feGaussianBlur>
            <feColorMatrix values="0 0 0 0 1   0 0 0 0 1   0 0 0 0 1  0 0 0 0.190832605 0" type="matrix" in="shadowBlurOuter1"></feColorMatrix>
        </filter>
        <path d="M472.87131,75.6577033 C469.668693,69.3937723 464.02295,64.7793607 458.515298,60.2922433 C453.220091,55.9801553 446.804233,55.2163907 440.446798,54.3359397 C429.951984,52.8879692 419.882062,54.4420182 410.369809,59.1943316 C409.557205,59.5974297 408.856134,60.0800865 407.99573,59.4489199 C403.57155,56.1976161 398.249787,54.6966064 393.533494,52.1772438 C386.942369,48.660744 380.239709,46.6717735 372.952825,45.8920971 C368.820757,45.4518716 364.619645,45.022254 360.652223,43.8872148 C357.816074,43.0757149 354.958681,42.4922835 352.101287,42.1369208 C347.682418,41.5959208 343.35915,40.7472934 338.690658,41.4208914 C334.967548,41.9565875 330.777058,41.6065287 327.319506,42.7839992 C320.760247,45.0116461 313.712364,44.8737442 307.307128,47.7007342 C303.036972,49.5889302 298.400346,50.6338027 293.965544,52.1772438 C289.29174,53.8108515 285.133117,56.5582828 280.241557,57.8842631 C269.884833,60.6847335 259.708688,64.2436647 248.948317,65.1612431 C241.411809,65.8030175 241.778277,67.2244685 242.351881,58.5896846 C242.872372,50.8088321 241.342764,43.3727345 235.155285,38.0263818 C230.152191,33.7089899 224.251514,30.4099509 219.354642,25.9970884 C215.902401,22.8836866 211.387932,21.9608043 207.861334,19.0542554 C206.517616,17.9457359 203.559311,17.2880496 201.142742,17.9828633 C196.846029,19.218677 192.650228,21.9714121 188.056092,18.8314907 C187.833024,18.677677 187.418755,18.7678437 187.100086,18.7943633 C182.304126,19.1762456 177.917124,17.4312555 173.503567,16.0416281 C169.339633,14.7315596 165.409389,12.6205989 161.197654,11.5279911 C153.963881,9.64509907 146.331772,9.54962849 139.220155,7.14164823 C136.920431,6.3619718 134.567596,7.70386388 132.634341,6.60064826 C129.776947,4.9670405 126.66993,4.41543269 123.584157,4.03355036 C118.761642,3.43951118 113.843526,3.62514842 109.031632,2.96746218 C103.194689,2.17717791 97.3843014,3.13718766 91.4570687,2.32568771 C85.5404582,1.51949168 79.0874225,2.17187399 73.1761232,4.47907975 C72.5069195,4.73897189 71.7474264,5.03068756 71.0463558,4.38891309 C64.9651,-1.16429249 58.2571296,-0.782410159 51.0286674,1.8748544 C45.643171,3.85321704 39.8699613,4.6169817 34.829689,7.77281486 C33.1885466,8.80177559 31.4624259,10.0853245 29.4388814,10.5891971 C22.9646012,12.1909813 16.9045899,14.768687 12.0183406,19.351275 C8.56609934,22.5919709 4.78987847,25.4083531 2.63886658,30.1076274 C-1.31793307,38.7689308 -0.377861208,47.1226068 2.52202149,55.6141848 C4.08880793,60.2020767 6.38322061,64.6096353 7.418893,69.3036056 C9.08659111,76.824566 12.2520308,80.4842716 19.5495378,81.7359971 C18.7953559,85.9313988 17.589727,90.0525456 16.5062543,94.1524768 C15.019135,99.7693294 14.3180645,105.449829 13.2239695,111.098505 C12.6184995,114.222515 13.5479491,117.495034 12.4804099,120.412191 C11.1366913,124.093112 11.1366913,127.816465 11.0888911,131.566337 C11.0198462,136.785396 13.0274573,141.277817 15.9751403,145.547474 C19.0078015,149.944425 22.3644423,154.070875 25.5936157,158.303405 C27.9464509,161.384983 30.559532,164.174845 33.0239012,167.118522 C36.1468518,170.847178 40.5497873,173.117257 43.4549811,176.983815 C46.2273964,180.670041 49.9505059,182.88708 54.0241506,184.99804 C57.8641052,186.987011 62.2882852,187.400717 65.836127,189.957207 C70.7754877,193.516138 76.495586,194.693608 82.4015742,195.022452 C84.701298,195.149746 85.3333237,195.961246 85.1633672,198.1995 C84.8659433,202.13501 83.416002,205.640902 81.9713718,209.231657 C79.9903164,214.153696 78.8271766,219.478833 76.7930098,224.26297 C74.1693064,230.43143 71.694315,236.690057 69.2777461,242.927469 C65.8945496,251.647115 60.3019187,259.226419 57.0196339,267.940761 C55.2775798,272.571085 53.131879,277.180192 52.3458302,281.990849 C51.7775382,285.475525 51.1402014,289.03976 50.7577992,292.603995 C50.3541526,296.300828 52.7335435,304.177151 55.8405607,305.964573 C60.2488073,308.499847 64.5720756,308.552887 69.3361686,306.203249 C72.1192062,304.829534 74.7641542,303.355044 77.0745003,301.419112 C80.1230949,298.862622 84.2657845,298.141289 87.0116441,295.176397 C91.2924233,290.556682 95.477602,285.841496 99.8858486,281.34377 C104.03916,277.105937 106.099883,271.457261 109.971704,267.044399 C112.754742,263.872654 114.868576,260.207644 117.221411,256.722968 C118.745708,254.458193 119.956648,251.350096 123.254867,250.623458 L123.254867,250.623458 C123.260178,250.623458 123.265489,250.618154 123.276111,250.618154 C123.2708,250.618154 123.265489,250.623458 123.254867,250.623458 C120.275317,256.012242 118.527952,261.899595 116.61063,267.691477 C113.099966,278.294016 108.500518,288.514672 106.211417,299.557436 C104.533096,307.656524 102.737931,315.532847 107.953471,322.979552 C109.849548,325.684552 111.936826,327.954631 115.670558,328.564582 C121.146344,329.460944 126.01666,328.27817 130.902909,326.039915 C132.751186,325.191288 134.965931,324.756366 136.139693,323.128062 C138.880242,319.325151 142.826419,316.800484 145.90157,313.310504 C149.62999,309.083279 154.37815,305.678161 158.47835,301.779779 C162.132415,298.305711 164.936697,293.945887 168.755407,290.355133 C174.390527,285.045907 178.172059,277.954565 183.854979,272.555173 C186.032547,270.486644 186.707062,267.458104 188.47036,265.267585 C191.285265,261.761693 194.737506,258.759674 197.961369,255.587929 C198.773973,254.787037 200.11238,254.638527 200.510716,253.286027 C201.588877,249.626321 204.557805,247.075135 207.011552,244.651243 C211.934979,239.776939 216.497249,234.605616 221.16043,229.513852 C221.521588,229.116058 221.734033,228.463675 222.37137,228.776607 C226.928329,231.030773 232.133246,229.423685 236.732694,231.232322 C237.497498,231.534646 238.161391,231.582381 238.873084,231.53995 C249.134207,230.94591 259.405953,230.983038 268.817294,225.456352 C272.556336,223.260528 277.426652,223.207489 281.649009,221.526146 C286.556503,219.568999 291.671131,218.04147 296.812315,216.795048 C301.252428,215.718352 305.835943,215.177352 310.451324,215.304647 C312.002177,215.347078 312.788225,216.185098 312.288978,217.580029 C311.295795,220.338068 310.833726,223.281744 308.900471,225.726852 C307.413351,227.60444 306.122744,229.747224 305.230473,231.964263 C303.456552,236.38243 301.077161,240.487665 298.634036,244.508037 C296.456469,248.088184 295.086194,252.023694 292.87676,255.625056 C289.790987,260.64787 286.96546,265.845712 283.640687,270.75184 C282.328835,272.687771 280.878894,274.692653 280.220312,276.883173 C278.632281,282.18179 275.679287,286.721947 272.821893,291.320446 C269.805166,296.16823 267.436397,300.984191 269.566164,306.945798 C270.761171,310.287269 272.418247,313.649955 275.403108,315.044886 C280.20969,317.293749 285.61112,317.352092 290.757615,315.61771 C297.226584,313.443102 302.537724,309.136318 308.379979,305.800151 C310.430079,304.627985 310.647836,302.09271 312.469557,300.957671 C317.100872,298.077642 319.809553,293.632956 322.512924,289.16175 C327.415106,281.052055 334.972859,274.957849 339.662596,266.689036 C340.358356,265.458526 341.479006,264.875095 343.008615,264.13785 C341.771119,270.422996 338.557879,275.424594 336.215666,280.765643 C334.330211,285.056515 330.702702,288.371466 328.64198,292.471397 C325.412806,298.889142 320.983315,304.681024 318.763258,311.639769 C317.892231,314.365984 316.107688,316.784572 314.981726,319.441837 C313.478674,323.000768 315.178239,326.299807 316.033332,329.710229 C317.122116,334.048836 321.264806,337.093287 325.789897,336.997816 C329.906031,336.912954 333.868142,336.499248 337.479718,334.462542 C341.643652,332.112905 346.636124,332.123513 350.608857,328.69718 C354.379766,325.445876 358.533078,322.406729 362.792613,319.74416 C365.150759,318.26967 366.048342,315.241131 368.842002,314.599357 C371.120481,314.074269 372.681957,312.636906 374.020364,311.008602 C377.159248,307.179171 380.733645,303.736926 383.776929,299.80672 C387.165437,295.436289 390.538011,290.996907 394.744434,287.326594 C396.752045,285.570996 396.714867,282.494721 398.563144,280.919457 C401.52676,278.389486 403.603416,275.223045 405.775673,272.162683 C408.691489,268.062752 411.580749,263.957516 414.7515,260.043223 C417.789473,256.298654 421.146113,252.65486 423.36617,248.443547 C428.172752,239.315498 434.163719,230.882263 438.731299,221.637529 C440.760155,217.532294 444.159285,214.222647 445.503004,209.746137 C446.729877,205.672726 447.494681,201.408373 449.188935,197.547118 C452.327819,190.376217 453.411292,182.722658 455.047123,175.212306 C456.358975,169.192355 456.507687,163.007983 456.183707,156.807699 C455.822549,149.901993 456.75731,142.884905 454.048629,136.212572 C453.352869,134.50471 453.68216,133.385582 455.891594,133.115082 C459.205746,132.711984 462.339319,131.173847 464.968333,129.460681 C470.242296,126.029044 473.699848,120.730426 475.590614,114.774123 C477.268935,109.486113 477.444202,103.885172 477.885027,98.3319667 C478.527675,90.1745358 476.424463,82.5952323 472.87131,75.6577033 Z M200.107069,25.7796276 C200.962163,25.7053727 201.689789,25.4985198 202.539572,25.8326668 C207.388643,27.7420785 212.019957,29.8371274 215.461576,34.0855683 C218.228681,37.5012936 222.212036,39.63347 225.850167,41.9671953 C232.377559,46.1572931 233.816878,52.4000085 234.146169,59.3640571 C234.316125,62.944204 233.445098,66.4766156 233.997457,70.1151055 C234.24708,71.7487133 233.152985,73.589174 232.680294,75.339468 C230.927617,81.8632912 228.542915,88.1484379 225.573988,94.2161238 C224.543627,96.3164767 222.769706,97.9288687 221.925234,100.209555 C221.431298,101.546143 216.853095,101.631006 215.296931,100.55431 C209.295342,96.3960355 206.368904,90.2540946 204.02138,83.6135852 C201.519833,76.5434581 200.452293,69.1338801 198.598705,61.9152433 C197.732989,58.5472532 196.474249,55.1686554 196.463627,51.5832046 C196.453005,48.8251655 194.286059,47.0112245 193.292876,44.6774991 C191.720778,40.980666 189.516655,37.5808524 188.295093,33.6930781 C187.859579,32.3087547 186.648639,30.9509508 185.437699,30.0864117 C184.412649,29.3491666 184.285182,28.4475 183.982447,27.1162158 C189.739723,30.0545881 194.779995,26.2516766 200.107069,25.7796276 Z M18.5510434,72.9102721 C17.0692352,72.7352427 16.2619419,71.2660565 16.304431,69.7968703 C16.3469201,68.3701154 15.7998727,67.3676743 14.9872682,66.2962822 C10.1488192,59.9315767 9.0334797,52.1242046 7.80660626,44.7040187 C6.59566623,37.3739995 10.3718871,31.6192449 16.2353862,26.5274805 C22.8158892,20.8098534 30.3152196,17.7070594 38.2181966,14.8482458 C42.9344893,13.1403832 47.3746028,10.663452 52.0643398,8.87603049 C55.8671164,7.42805998 59.3512245,4.37300132 63.9347387,5.98539339 C64.4817862,6.17633456 65.3475021,5.83688359 65.1350565,6.9347953 C65.0447671,8.05392269 64.1206287,8.31911875 63.3133353,8.51005992 C59.5318033,9.39051085 57.6091704,12.5410401 55.399736,15.1823929 C53.8754387,17.0016379 52.6220095,19.0542554 50.8268441,20.6613436 C48.1925184,23.0268925 48.102229,26.6070393 46.7531993,29.5719313 C45.1970352,32.9876566 43.1416238,36.0321074 40.7250549,38.6999798 C39.0786013,40.5139209 37.7508162,42.3862051 36.9329006,44.5608128 C34.7659553,50.3526949 30.6498214,54.792077 27.1391576,59.6982042 C24.7385221,63.0555863 22.0245293,66.3705371 20.691433,70.4333408 C20.3196532,71.5524682 19.9000731,73.0746936 18.5510434,72.9102721 Z M35.4776481,144.529121 C35.6529157,138.02121 38.2766191,132.107337 39.8062276,125.944181 C40.3479639,123.764269 42.4724201,121.780603 44.2728967,120.146995 C47.7782494,116.964642 51.0924011,113.45875 53.9869726,109.894515 C57.7366378,105.269496 62.3732634,101.986369 67.1639121,97.7909668 C68.3907856,102.2993 71.2003789,105.502868 72.8999439,109.30578 C73.7656598,111.241711 75.7998266,112.291888 77.4250355,113.48527 C80.3514739,115.638662 80.2611845,118.269407 79.3689129,121.160044 C77.2497679,128.007406 72.3263407,132.701377 67.1639121,137.3317 C64.4339859,139.782112 61.8155937,142.412856 59.4574473,145.330013 C56.4885198,149.005631 52.4042528,151.832621 48.1925184,153.768552 C42.2227965,156.494767 35.2970693,150.999905 35.4776481,144.529121 Z M135.183688,153.858719 C136.187494,158.711807 131.295933,166.057738 126.489351,165.861492 C122.808731,165.712983 118.968776,166.227463 115.033221,164.052855 C110.497507,161.544101 106.17955,159.003522 102.64233,155.301385 C99.7583812,152.27815 96.800076,149.228395 95.3766903,145.096641 C94.6171972,142.900817 92.944188,141.155827 91.6642031,139.294151 C86.3211958,131.545122 87.1072446,123.366475 88.9024101,114.885505 C89.5981695,111.59177 91.6323363,109.714182 94.229484,108.054054 C96.348629,106.696251 97.633925,104.548162 99.1422889,102.612231 C101.28799,99.8594961 103.38589,99.6367314 106.073327,101.641614 C111.713758,105.858231 115.346578,111.851662 119.898226,117.038897 C124.051538,121.775299 127.381623,127.073916 130.823242,132.298279 C133.213255,135.920857 133.808103,140.206425 134.822531,144.274533 C135.741358,147.467493 134.519796,150.65515 135.183688,153.858719 Z M88.1004279,147.090915 C90.4904411,150.347523 92.1156501,154.203473 94.4047516,157.619199 C95.4563574,159.194463 93.624014,159.698336 92.8910766,159.58165 C90.7666204,159.242199 89.0776777,160.334806 87.2028451,160.790944 C81.5942808,162.159355 76.155673,162.323777 70.9295107,159.199767 C68.6828983,157.857875 66.5796867,156.839522 64.8004546,154.511101 C62.3732634,151.334052 64.5720756,150.130062 66.2344626,149.05867 C72.0395391,145.324709 75.8901159,139.522219 81.5464805,135.485935 C83.947116,139.177464 85.4023685,143.409994 88.1004279,147.090915 Z M112.691008,249.483115 C110.922398,254.590791 106.232661,257.078331 103.577091,261.411634 C100.321362,266.720859 96.1521168,271.499693 92.6467641,276.713447 C87.0381998,285.040604 79.6663368,291.606858 71.5562253,297.472995 C68.4863861,299.690034 64.9651,299.175554 61.6934375,299.891583 C59.4627585,300.379544 58.1721513,297.345701 58.3261744,295.871211 C58.8572885,290.758231 58.8201105,285.54978 61.1039009,280.638349 C64.0462727,274.294859 66.3619299,267.670261 69.0759227,261.215389 C70.9295107,256.807831 73.3726354,252.612429 74.8969327,248.098792 C77.8924159,239.220028 83.5222248,231.465695 85.6148141,222.226264 C86.3955518,218.773411 87.3834239,215.33647 88.6580976,212.037431 C90.5541748,207.141912 92.7901649,202.384294 94.8774431,197.56303 C95.2810898,196.634844 96.045894,196.401471 96.9806547,196.35904 C98.6058637,196.284785 100.225762,196.136275 101.850971,196.019589 C103.035355,196.072628 104.230361,196.226442 105.409435,196.162795 C111.118911,195.833952 111.735003,196.486334 112.430762,202.103187 C113.158389,207.942804 115.845826,213.130039 118.517329,218.274842 C119.940715,221.011666 121.045432,224.119764 123.127399,226.257244 C126.075082,229.285783 124.094027,230.797401 122.628152,233.43345 C119.553002,238.960135 114.762353,243.500292 112.691008,249.483115 Z M123.276111,250.607547 C123.276111,250.612851 123.2708,250.612851 123.2708,250.612851 C123.265489,250.607547 123.265489,250.596939 123.260178,250.586331 C121.905837,248.024537 124.965054,246.889498 125.156255,244.826272 C125.655502,247.12287 124.24805,248.793606 123.276111,250.607547 Z M338.892481,255.439419 C332.46069,261.050968 329.422717,269.197791 323.930998,275.604928 C320.229133,279.922319 316.44229,284.202584 312.804159,288.594231 C308.985449,293.208642 305.363251,298.141289 300.482313,301.535799 C295.654486,304.893181 290.667325,308.452112 287.156662,308.940073 C278.000255,309.714445 276.433469,307.348896 278.191456,301.106181 C280.804538,291.834927 286.020077,283.90026 290.306168,275.461722 C293.083894,269.993379 296.493647,264.944046 299.39884,259.576477 C301.926943,254.893115 305.241095,250.628762 307.684219,245.908272 C310.392901,240.667998 312.432379,235.088273 314.907371,229.720705 C316.665358,225.912489 318.040943,221.987587 319.326239,218.004343 C319.628974,217.065548 320.053866,215.898686 322.114588,216.763225 C324.249667,217.659588 326.719347,218.258931 329.146538,218.73098 C333.947809,219.66447 337.729341,222.926381 339.721019,227.280901 C342.111032,232.494655 345.143693,237.485645 346.328078,243.229792 C346.737035,245.224067 346.322766,246.353802 344.633824,247.759341 C342.201321,249.785439 341.394028,253.259507 338.892481,255.439419 Z M449.093334,167.829247 C448.525042,172.846757 447.202568,177.912002 446.09254,182.929511 C444.557621,189.856432 442.50752,196.592412 439.766972,203.137451 C437.552226,208.420157 435.794239,213.925627 433.228958,219.027999 C431.646238,222.189136 428.852578,224.724411 426.749367,227.646871 C422.149919,234.059312 417.762917,240.577831 414.039807,247.589615 C411.81444,251.779713 408.781778,255.731135 405.403893,259.072605 C402.865168,261.58136 401.739206,264.77432 399.620061,267.426281 C396.491799,271.340575 394.07523,275.753437 390.314943,279.259329 C387.956797,281.455153 386.597145,284.626898 384.185887,287.003054 C378.359566,292.741897 373.106848,299.011132 366.882191,304.421132 C363.886708,307.020053 360.954958,309.953122 358.182543,312.949837 C350.513256,321.234562 341.117849,326.80368 329.799808,328.54867 C328.015265,328.824474 325.71023,329.736748 324.175311,327.700042 C322.725369,325.774719 322.443879,323.589503 323.452996,321.377768 C325.837698,316.15871 328.429534,311.029818 330.676147,305.747112 C332.540357,301.366073 335.918242,298.008691 338.14361,293.823897 C340.501756,289.389819 342.604968,284.902702 344.554157,280.28829 C346.822014,274.93133 349.753763,269.834261 351.78793,264.397742 C355.351705,254.861291 357.534584,245.112684 353.275049,235.104185 C350.337989,228.203783 347.215038,221.123048 340.873536,216.943558 C338.340122,215.278127 335.551774,213.225509 332.242933,212.313235 C325.80052,210.536421 319.581174,207.826118 312.830715,207.364676 C306.961904,206.966882 301.25774,208.144353 295.442041,209.030108 C286.753015,210.350784 279.428952,215.309951 270.872705,216.498029 C269.932633,216.625323 269.645831,217.532294 268.806671,217.898264 C262.990972,220.428235 256.750382,221.191999 250.610704,222.051234 C243.552198,223.037764 236.392781,222.411901 229.366142,221.181391 C227.725,220.89498 226.046679,221.186695 224.384292,220.316852 C219.39182,217.712627 219.115641,217.691411 216.157336,222.549803 C212.306759,228.877381 206.926574,233.767597 201.902235,239.044998 C198.827084,242.269782 196.421138,246.125733 193.399099,249.40886 C191.630489,251.32888 190.201792,253.768684 187.572778,254.765821 C185.740434,255.460635 185.012808,257.322311 184.125848,258.627076 C182.888352,260.451624 181.257832,261.766997 179.89818,263.389997 C175.234998,268.95381 170.656795,274.586575 166.009547,280.1663 C159.184732,288.355554 152.551117,296.756966 144.69063,303.975602 C141.721702,306.701818 138.789953,309.587151 135.311156,311.836014 C132.07136,313.931063 129.617613,317.060376 126.351262,319.240288 C124.407384,320.534445 122.325417,321.24517 120.19565,321.706611 C117.1683,322.358994 112.993743,319.208464 112.414829,315.702572 C111.607536,310.77523 111.357912,306.155514 113.158389,300.920544 C115.675869,293.601132 118.639486,286.33476 120.402784,278.654682 C121.188833,275.223045 122.171394,271.133722 125.124388,267.845291 C127.206355,265.532781 128.034893,261.597271 129.357367,258.356576 C133.006121,249.40886 135.65638,240.079263 139.915914,231.343705 C141.642035,227.800685 141.950081,223.568156 143.665579,220.019833 C145.450123,216.328303 146.74073,212.451137 148.052582,208.653529 C149.523767,204.410392 149.730902,199.716422 150.346994,195.202785 C150.458528,194.380677 149.741524,193.601001 148.774897,193.372932 C147.712669,193.118344 147.006287,193.829069 146.687618,194.571618 C143.883336,201.121961 141.116232,207.69352 139.846869,214.768951 C139.097999,218.927225 137.095699,222.58693 135.220866,226.299675 C134.636641,227.461234 133.70188,227.21195 133.133588,226.52244 C132.273183,225.477568 131.115355,224.851705 130.419595,223.467381 C127.849003,218.375617 124.449873,213.665735 122.19795,208.45198 C120.535563,204.59603 118.251772,200.968147 117.274522,196.820481 C116.987721,195.605883 116.823076,194.576922 118.485463,194.142001 C123.764736,192.762981 128.30045,189.638972 133.696569,188.201609 C138.96522,186.79607 144.409139,185.109423 149.247588,182.001325 C151.313622,180.670041 154.070104,180.197992 156.465428,179.041737 C160.098248,177.286139 163.003442,175.138051 164.80923,171.483649 C165.366899,170.359218 166.397261,169.457551 167.262977,168.492237 C167.83658,167.855767 168.11807,167.198081 167.565712,166.466139 C167.008042,165.728894 166.338838,165.850885 165.552789,166.232767 C159.551201,169.171139 153.268121,171.473041 147.452423,174.883463 C144.488806,176.623149 140.574496,176.591325 137.435612,178.484825 C133.085788,181.104962 128.082693,182.255913 123.499179,184.414609 C120.392162,185.873187 116.669052,186.037609 113.253989,186.67408 C108.489896,187.565138 103.959493,189.108579 99.3494234,190.402736 C97.1453001,191.017991 95.3501346,189.697315 93.6399474,189.368472 C89.1839005,188.519844 84.6375643,188.026579 80.1815174,187.140825 C75.4546024,186.202031 71.1897566,184.165325 66.7496432,182.563541 C56.9771447,179.041737 48.9307669,173.329414 43.8639389,163.899042 C42.769844,161.862336 44.0285843,161.878248 45.0642567,161.803993 C48.516498,161.554708 51.4323141,160.451493 54.040084,158.016993 C55.171357,156.961513 57.0302561,155.205915 58.7191988,158.367052 C62.734421,165.8721 70.3983967,167.378414 77.8021265,169.256002 C85.3280126,171.16011 91.5526692,167.930022 97.7242144,164.471865 C99.0041993,163.755836 99.9070931,163.373953 101.160522,164.503689 C107.799448,170.4706 115.484668,173.334718 124.545474,173.896933 C129.527324,174.204561 132.613096,171.839012 136.166249,169.675012 C138.747463,168.099747 139.963715,165.6016 141.408345,162.891297 C144.73843,156.653885 143.920514,150.432385 143.235377,144.035856 C142.767997,139.681337 141.10561,135.788259 138.912109,132.033083 C136.830142,128.474151 135.348334,124.512122 132.942387,121.207779 C129.213966,116.078887 124.641074,111.559946 120.960454,106.399231 C116.684986,100.400496 109.748636,97.6636727 104.96861,92.5666043 C101.712881,89.0978398 98.1544168,86.8754968 93.8948821,86.0746047 C84.7862762,84.3614381 75.3961799,82.0701441 67.4029135,89.4532025 C66.4097302,90.3707809 65.1775456,90.1161927 64.1153175,90.6518887 C59.1175343,93.1712513 54.379997,96.4331629 51.0180451,100.612653 C47.5498704,104.924741 43.5824485,108.817819 39.9602507,112.907142 C36.3539863,116.980554 34.1923521,121.791211 30.8835116,125.917661 C29.4282591,127.731602 28.4828761,129.975161 28.1323408,132.409661 C27.4418926,137.220318 25.9122841,141.9302 26.7726889,147.451582 C22.428176,143.627454 20.160319,139.108514 18.2801753,134.435759 C16.8036782,130.776053 19.0237349,127.126955 18.8856453,123.403603 C18.6147771,116.100103 21.1375688,109.252741 22.7734001,102.267476 C23.5116486,99.1169471 23.2832696,95.7807806 24.5207653,92.7363298 C25.3811701,90.6253691 26.4805761,88.609879 27.346292,86.5042223 C29.8903283,80.2986344 31.504915,73.8119387 33.3797476,67.38889 C34.3038861,64.222449 36.4708314,61.2257335 38.6961992,58.6904591 C41.2136798,55.8210377 42.9185559,52.5909496 44.2357187,49.1805283 C45.7175269,45.3351853 47.6029818,41.9937149 50.2479298,38.7105877 C53.6470597,34.4886663 56.1114288,29.4181176 58.4217749,24.4536473 C61.1995014,18.4814319 65.5811923,14.7899027 71.6305813,12.4031381 C76.4424745,10.5043343 81.259679,10.6051088 86.1884173,10.8915206 C89.9327713,11.1089813 93.3425235,9.21548145 97.2037226,9.55493241 C104.612764,10.2073147 112.133339,9.34807948 119.468023,11.331746 C121.188833,11.7984911 123.122088,11.8833538 124.896009,11.6605892 C128.103938,11.2521872 130.987887,12.005344 133.818725,13.3313244 C137.2391,14.9278047 141.084365,14.4451478 144.637518,15.6173144 C149.95397,17.3729124 155.259799,19.1603338 160.724963,20.5446573 C165.202254,21.6743925 169.65299,23.4034709 174.162148,24.740059 C175.139398,25.0317747 175.70769,25.5250394 175.877646,26.7502452 C176.345027,30.0811078 177.975547,32.9399213 179.951291,35.6343133 C180.769207,36.7481368 181.555256,37.9786465 181.969525,39.2781072 C184.200204,46.2845873 187.609956,52.8190183 190.138059,59.7247238 C192.150981,65.2195862 191.338376,70.9849486 193.303498,76.347213 C195.539488,82.4573304 198.317215,88.2916438 201.456099,93.9880552 C203.006952,96.7991335 204.483449,99.663251 205.970568,102.506153 C207.160264,104.786839 209.544966,105.036123 210.91524,106.473486 C213.379609,109.072407 216.529116,109.284564 219.498043,110.111976 C222.297014,110.891652 227.464754,107.746427 228.739428,105.147506 C229.854767,102.882731 231.325953,100.750555 232.775894,98.7244569 C235.277441,95.218565 236.658338,91.4899083 237.380653,87.3157222 C237.720566,85.3744871 237.768366,83.2635264 239.197063,81.539752 C240.551404,79.9061442 241.364008,77.7845757 241.135629,75.7372621 C240.90725,73.7270759 241.7889,73.3133701 243.244152,73.4830956 C251.083395,74.3900661 258.481814,71.6108113 266.119234,70.8576545 C266.538814,70.8152232 267.059306,70.7197526 267.330174,70.4492526 C271.366641,66.4341842 276.985828,66.5349587 281.813654,64.6202431 C286.131611,62.9123805 290.709815,61.931155 294.905616,59.6929002 C299.202328,57.4016062 304.131066,56.2824789 308.794248,54.6859986 C316.267022,52.1242046 324.037221,50.8883909 331.85522,50.3367831 C333.868142,50.1935772 335.67393,49.8541263 337.612496,49.4881557 C343.64064,48.3478126 349.801563,49.0108028 355.819086,49.73744 C362.229632,50.5118125 368.544578,52.1082928 374.880769,53.4660967 C377.483228,54.0230084 380.122864,54.6435672 382.565989,55.667224 C387.744351,57.8471356 393.544116,58.3404003 398.345387,61.5068413 C398.435677,61.5651844 398.557833,61.5704884 398.642811,61.6288315 C403.57155,65.2461058 403.645905,63.7291843 399.630683,68.0571841 C395.217126,72.8148015 393.156403,78.4263502 393.671584,84.8812224 C393.862785,87.2732909 393.724695,89.5115457 392.524377,91.6225063 C392.317243,91.9884769 391.913596,92.4658298 392.009197,92.7522416 C393.692828,97.6795844 392.062308,103.349476 394.44701,107.863113 C399.296081,117.044201 405.159581,125.678985 415.994307,128.72874 C419.972351,129.847867 424.077863,129.831955 428.358642,128.914377 C433.621982,127.789946 438.587899,126.17225 443.362614,123.801397 C444.41422,123.281612 444.759444,124.040073 444.918778,124.777318 C445.460514,127.217122 446.04474,129.66223 446.389964,132.133857 C447.16539,137.75071 447.993928,143.372866 448.445375,149.026846 C448.939311,155.296081 449.789094,161.666091 449.093334,167.829247 Z M126.154749,242.328125 C126.234416,241.930331 126.356573,241.527233 126.877064,241.537841 C127.344445,241.728782 127.455979,242.078841 127.344445,242.513763 C127.238222,242.927469 127.025776,243.357086 126.558396,243.282831 C126.075082,243.208576 126.069771,242.72592 126.154749,242.328125 Z M467.400836,112.82228 C465.451647,119.218809 460.841577,124.077201 455.280813,127.848289 C454.080495,128.659789 453.039512,128.490063 452.949222,126.628387 C452.880178,125.244063 452.901422,123.727142 452.349064,122.517848 C449.916561,117.192711 453.305069,113.554221 455.503881,109.300476 C457.198135,106.03326 459.832461,102.532672 458.116962,98.4062216 C456.810422,95.2663002 453.687471,94.7199964 450.989412,96.698359 C450.028095,97.4037805 449.316402,98.7774961 448.062973,96.0831041 C445.354292,90.2593986 443.500704,83.825742 438.433876,79.2802815 C435.958884,77.0632424 432.979334,76.3259974 429.888251,78.2407129 C427.83815,79.5083501 426.48381,81.5768794 426.898078,84.504644 C427.153013,86.323889 427.710683,88.2704281 426.929945,90.1904476 C426.712189,90.7261436 426.807789,91.574771 427.094591,92.0945553 C429.681116,96.7301825 432.453531,101.206692 438.003673,102.872123 C439.023412,103.179751 440.090951,103.513898 440.972601,104.086721 C442.59781,105.147506 443.952151,106.468182 446.119096,104.839878 C446.798922,104.330702 448.74811,104.511035 449.342958,105.12629 C450.150251,105.953702 448.928689,107.083437 448.355086,107.921456 C445.274624,112.435093 441.01509,115.861427 437.180446,119.669642 C436.415642,120.433407 434.737322,120.438711 433.467959,120.507662 C427.030857,120.863024 420.721222,122.915642 414.140719,120.093956 C407.682372,117.325309 404.421332,112.451005 402.652722,106.229506 C400.31582,97.9978197 400.6398,89.5911045 402.312809,81.332899 C403.34317,76.2411346 405.839406,72.0669486 410.938101,69.2134389 C414.650589,67.1343018 418.124074,64.5990274 422.171163,63.1139295 C424.922334,62.1061844 427.779728,61.6500472 430.711477,61.7932531 C435.810172,61.8887236 440.898245,62.2865177 445.832294,63.4958118 C450.883189,64.7369294 455.222391,67.2934194 458.425008,71.637331 C459.78466,73.4777916 461.563892,75.0371445 463.295324,76.5699777 C468.234685,80.9510167 467.666393,87.1566046 469.0526,92.7999768 C470.752165,99.7693294 469.355335,106.404535 467.400836,112.82228 Z M440.473354,95.8974669 C435.905773,95.3405551 432.8678,90.1745358 434.678899,85.4699576 C436.410331,89.2781731 439.61826,91.8505749 440.473354,95.8974669 Z" id="path-30"></path>
        <filter x="-0.8%" y="-0.6%" width="101.7%" height="102.4%" filterUnits="objectBoundingBox" id="filter-31">
            <feOffset dx="0" dy="2" in="SourceAlpha" result="shadowOffsetOuter1"></feOffset>
            <feGaussianBlur stdDeviation="1" in="shadowOffsetOuter1" result="shadowBlurOuter1"></feGaussianBlur>
            <feColorMatrix values="0 0 0 0 1   0 0 0 0 1   0 0 0 0 1  0 0 0 0.190832605 0" type="matrix" in="shadowBlurOuter1"></feColorMatrix>
        </filter>
        <path d="M112.908963,75.2026523 C107.342881,70.1611012 101.087053,66.7769733 93.2806361,67.0114641 C90.1366818,67.1073921 86.9873806,67.0274521 83.1269468,67.0274521 C80.7796748,68.4130792 77.6250268,68.8927194 74.614744,70.6460707 C70.8933286,72.8151101 67.8883927,75.5064244 64.9529659,78.4748642 C63.6964536,79.7485753 63.7445753,81.0809091 64.7337446,82.2427042 C65.7068734,83.3885113 67.1291384,83.702942 68.5620972,82.8715657 C69.5833477,82.2800095 70.6206387,81.6937826 71.5616863,80.9796517 C77.9351447,76.1246273 85.3619348,74.1314559 93.1041897,74.6377428 C103.306001,75.309239 109.936108,82.1414468 115.550313,89.8743122 C116.737316,91.5050888 117.972441,92.85874 119.581846,93.9779004 C120.469425,94.5961033 121.217985,95.4541262 122.469151,94.7133486 C123.634767,94.0205351 124.099944,93.0772427 123.982313,91.7342502 C123.64546,87.8012008 123.142855,84.0333608 119.635314,81.3313878 C117.234574,79.4821085 115.154645,77.2384584 112.908963,75.2026523 Z" id="path-32"></path>
        <filter x="-6.7%" y="-7.1%" width="113.3%" height="128.6%" filterUnits="objectBoundingBox" id="filter-33">
            <feOffset dx="0" dy="2" in="SourceAlpha" result="shadowOffsetOuter1"></feOffset>
            <feGaussianBlur stdDeviation="1" in="shadowOffsetOuter1" result="shadowBlurOuter1"></feGaussianBlur>
            <feColorMatrix values="0 0 0 0 1   0 0 0 0 1   0 0 0 0 1  0 0 0 0.190832605 0" type="matrix" in="shadowBlurOuter1"></feColorMatrix>
        </filter>
        <path d="M166.514287,81.409829 C165.338636,80.8536222 164.522212,81.5987294 163.526175,82.1654307 C159.35697,84.5424278 157.49008,88.8818905 154.964608,92.3817957 C151.862197,96.6687861 149.157112,100.934788 144.601466,104.04115 C142.870647,105.221778 142.707362,104.597357 142.157637,103.474449 C141.831067,102.802803 141.885495,102.073437 141.901824,101.312588 C142.021566,95.860712 144.155154,91.0332566 146.794925,86.3789598 C147.774634,84.6526198 148.601944,83.1099329 146.539112,81.6354601 C144.334767,80.0560426 142.859761,81.7666409 141.738539,83.0207299 C137.172007,88.131536 133.743026,93.7828073 134.026053,100.877068 C134.026053,101.732367 133.960739,102.587666 134.036939,103.437718 C134.412494,107.834901 136.63861,111.014724 140.9711,112.536422 C144.606909,113.8115 147.818177,112.274061 150.430733,110.138436 C156.66277,105.032877 161.125888,98.5000708 165.295094,91.7941055 C166.710229,89.5168059 167.891322,87.1345615 167.994736,84.3797636 C168.043721,83.0784495 167.766137,82.0027665 166.514287,81.409829 Z" id="path-34"></path>
        <filter x="-11.8%" y="-6.2%" width="123.5%" height="125.0%" filterUnits="objectBoundingBox" id="filter-35">
            <feOffset dx="0" dy="2" in="SourceAlpha" result="shadowOffsetOuter1"></feOffset>
            <feGaussianBlur stdDeviation="1" in="shadowOffsetOuter1" result="shadowBlurOuter1"></feGaussianBlur>
            <feColorMatrix values="0 0 0 0 1   0 0 0 0 1   0 0 0 0 1  0 0 0 0.190832605 0" type="matrix" in="shadowBlurOuter1"></feColorMatrix>
        </filter>
        <path d="M60.6857862,64.511969 C58.9975704,63.7981848 57.6784822,64.8793579 56.907657,66.2596905 C54.2803372,70.9832622 50.0516552,74.7306291 48.2168741,79.9580484 C47.6468977,81.5745596 46.3115244,82.9548922 45.2529969,84.3929574 C44.7155905,85.1224868 43.9447653,85.5738503 42.9513779,85.2327034 C41.7842834,84.833824 42.5171102,83.9258486 42.5388236,83.3170327 C42.6908173,79.3334872 43.673348,75.580872 46.4200914,72.4685631 C47.4406205,71.3086638 47.9725985,69.9650701 48.6402851,68.6319732 C49.8888048,66.138977 48.9279875,64.4174975 46.7240788,63.3678149 C44.5690252,62.339126 42.8970944,63.6302356 41.6485747,65.2414984 C36.4156486,71.9909575 34.0217478,79.6588888 34.0000344,88.0458528 C33.9891777,92.1553602 36.5513573,94.7113373 40.8126093,95 C43.6299212,94.7690698 45.9478252,93.3939856 47.9671702,91.5885316 C51.6150191,88.3292671 54.6006097,84.4821804 57.065079,80.372673 C59.2907011,76.6567966 60.8594933,72.5682829 62.6725611,68.6214763 C63.611665,66.5850921 62.4011437,65.23625 60.6857862,64.511969 Z" id="path-36"></path>
        <filter x="-13.8%" y="-6.2%" width="127.6%" height="125.0%" filterUnits="objectBoundingBox" id="filter-37">
            <feOffset dx="0" dy="2" in="SourceAlpha" result="shadowOffsetOuter1"></feOffset>
            <feGaussianBlur stdDeviation="1" in="shadowOffsetOuter1" result="shadowBlurOuter1"></feGaussianBlur>
            <feColorMatrix values="0 0 0 0 1   0 0 0 0 1   0 0 0 0 1  0 0 0 0.190832605 0" type="matrix" in="shadowBlurOuter1"></feColorMatrix>
        </filter>
    </defs>
    <g id="Icon" stroke="none" stroke-width="1" fill="none" fill-rule="evenodd">
        <g id="Background">
            <use fill="black" fill-opacity="1" filter="url(#filter-2)" xlink:href="#path-1"></use>
            <use fill="#C03A1F" fill-rule="evenodd" xlink:href="#path-1"></use>
        </g>
        <g id="pug" filter="url(#filter-3)" transform="translate(17.000000, 88.000000)">
            <g id="Path" fill="black" fill-opacity="1">
                <use filter="url(#filter-5)" xlink:href="#path-4"></use>
            </g>
            <g id="Path" fill="black" fill-opacity="1">
                <use filter="url(#filter-7)" xlink:href="#path-6"></use>
            </g>
            <g id="Path" fill="black" fill-opacity="1">
                <use filter="url(#filter-9)" xlink:href="#path-8"></use>
            </g>
            <g id="Path" fill="black" fill-opacity="1">
                <use filter="url(#filter-11)" xlink:href="#path-10"></use>
            </g>
            <g id="Path" fill="black" fill-opacity="1">
                <use filter="url(#filter-13)" xlink:href="#path-12"></use>
            </g>
            <g id="Path" fill="black" fill-opacity="1">
                <use filter="url(#filter-15)" xlink:href="#path-14"></use>
            </g>
            <g id="Path" fill="black" fill-opacity="1">
                <use filter="url(#filter-17)" xlink:href="#path-16"></use>
            </g>
            <g id="Path" fill="black" fill-opacity="1">
                <use filter="url(#filter-19)" xlink:href="#path-18"></use>
            </g>
            <g id="Path" fill="black" fill-opacity="1">
                <use filter="url(#filter-21)" xlink:href="#path-20"></use>
            </g>
            <g id="Path" fill="black" fill-opacity="1">
                <use filter="url(#filter-23)" xlink:href="#path-22"></use>
            </g>
            <g id="Path" fill="black" fill-opacity="1">
                <use filter="url(#filter-25)" xlink:href="#path-24"></use>
            </g>
            <g id="Path" fill="black" fill-opacity="1">
                <use filter="url(#filter-27)" xlink:href="#path-26"></use>
            </g>
            <g id="Shape" fill="black" fill-opacity="1">
                <use filter="url(#filter-29)" xlink:href="#path-28"></use>
            </g>
            <g id="Shape" fill-rule="nonzero">
                <use fill="black" fill-opacity="1" filter="url(#filter-31)" xlink:href="#path-30"></use>
                <use fill="#252627" xlink:href="#path-30"></use>
            </g>
            <g id="Path" fill-rule="nonzero">
                <use fill="black" fill-opacity="1" filter="url(#filter-33)" xlink:href="#path-32"></use>
                <use fill="#252627" xlink:href="#path-32"></use>
            </g>
            <g id="Path" fill-rule="nonzero">
                <use fill="black" fill-opacity="1" filter="url(#filter-35)" xlink:href="#path-34"></use>
                <use fill="#252627" xlink:href="#path-34"></use>
            </g>
            <g id="Path" fill-rule="nonzero">
                <use fill="black" fill-opacity="1" filter="url(#filter-37)" xlink:href="#path-36"></use>
                <use fill="#252627" xlink:href="#path-36"></use>
            </g>
        </g>
    </g>
</svg>