<?xml version="1.0" standalone="no"?>
<!DOCTYPE svg PUBLIC "-//W3C//DTD SVG 20010904//EN"
 "http://www.w3.org/TR/2001/REC-SVG-20010904/DTD/svg10.dtd">
<svg version="1.0" xmlns="http://www.w3.org/2000/svg"
 width="500.000000pt" height="500.000000pt" viewBox="0 0 500.000000 500.000000"
 preserveAspectRatio="xMidYMid meet">
<metadata>
Created by potrace 1.11, written by Peter Selinger 2001-2013
</metadata>
<g transform="translate(0.000000,500.000000) scale(0.100000,-0.100000)"
fill="#000000" stroke="none">
<path d="M0 2500 l0 -2500 2500 0 2500 0 0 2500 0 2500 -2500 0 -2500 0 0
-2500z m1111 1408 c-23 -6 -37 -6 -44 1 -8 8 2 11 34 10 l44 -1 -34 -10z m-96
-28 c3 -5 -5 -15 -19 -22 -33 -18 -110 -115 -124 -156 -7 -19 -27 -55 -45 -80
-19 -26 -42 -61 -51 -79 -8 -17 -40 -65 -70 -107 -30 -42 -58 -85 -61 -96 -7
-23 -35 -27 -35 -6 0 7 -11 34 -25 59 -36 64 -57 171 -44 220 21 79 88 127
319 226 118 51 144 58 155 41z m612 4 c-3 -3 -12 -4 -19 -1 -8 3 -5 6 6 6 11
1 17 -2 13 -5z m-857 -8 c0 -2 -7 -7 -16 -10 -8 -3 -12 -2 -9 4 6 10 25 14 25
6z m967 -12 c-3 -3 -12 -4 -19 -1 -8 3 -5 6 6 6 11 1 17 -2 13 -5z m-217 -25
c29 -1 157 -33 295 -73 l140 -42 40 -80 c49 -100 99 -239 114 -319 15 -84 102
-256 147 -290 42 -32 96 -43 129 -25 33 18 92 116 105 175 6 27 15 54 20 60 4
5 10 21 12 35 2 21 9 25 38 27 67 5 185 26 197 35 12 9 135 54 327 119 108 36
297 63 381 54 130 -15 313 -63 395 -105 l40 -20 -34 -45 c-40 -51 -49 -95 -49
-220 0 -76 4 -96 24 -130 92 -160 208 -199 372 -128 20 9 39 14 42 11 11 -11
36 -220 37 -308 1 -170 -84 -435 -185 -572 -29 -40 -71 -102 -92 -138 -21 -36
-54 -84 -72 -106 -19 -23 -55 -71 -81 -107 -129 -178 -371 -421 -467 -469
-105 -53 -175 -56 -175 -8 0 24 66 166 102 218 42 61 146 291 164 364 20 77
14 138 -21 213 -51 107 -104 148 -240 185 -118 33 -195 24 -404 -47 -160 -54
-170 -56 -276 -57 -68 -1 -129 4 -159 13 -48 14 -49 14 -67 -10 -37 -48 -175
-205 -224 -254 -28 -27 -106 -117 -174 -200 -152 -185 -185 -219 -286 -304
-91 -77 -114 -91 -148 -91 -39 0 -61 34 -61 93 -1 63 59 255 115 372 22 45 39
84 39 88 0 4 22 65 49 135 27 70 64 164 81 210 32 86 44 182 24 189 -12 4 -56
-97 -69 -157 -10 -47 -45 -130 -56 -130 -17 0 -139 227 -139 261 0 15 47 39
160 78 121 42 206 88 238 129 53 67 43 68 -87 8 -203 -92 -248 -108 -399 -146
-46 -11 -88 -18 -93 -15 -4 3 -44 12 -87 20 -151 26 -286 96 -339 174 -28 42
-29 51 -2 51 12 0 37 9 56 21 l33 21 38 -39 c40 -41 121 -73 186 -73 20 0 61
12 90 26 l53 26 44 -30 c126 -84 258 -71 310 30 16 31 21 59 20 117 0 68 -5
85 -40 156 -44 87 -149 222 -210 270 -21 17 -61 49 -89 72 -43 34 -63 43 -121
53 -87 14 -116 8 -210 -44 -54 -30 -94 -63 -149 -124 -129 -141 -170 -214
-174 -311 -1 -22 -5 -41 -9 -41 -5 0 -22 24 -39 53 -27 47 -29 58 -24 112 8
91 43 252 70 325 13 36 33 96 44 133 12 38 41 97 65 132 24 35 47 74 51 87 4
13 24 48 44 78 20 30 47 75 60 100 67 134 119 146 560 129z m477 -45 c-3 -3
-12 -4 -19 -1 -8 3 -5 6 6 6 11 1 17 -2 13 -5z m-1454 -46 c-87 -89 -93 -162
-31 -347 35 -106 45 -126 72 -142 17 -10 35 -20 40 -22 5 -2 0 -41 -12 -88
-20 -76 -33 -158 -49 -305 -4 -39 0 -62 16 -98 27 -62 130 -192 228 -288 68
-68 92 -83 188 -127 61 -27 129 -52 153 -56 35 -6 42 -11 42 -29 0 -47 -116
-350 -190 -493 -63 -125 -89 -200 -96 -282 -9 -105 37 -168 114 -157 85 12
262 162 358 301 26 39 63 93 82 120 35 51 62 74 47 39 -29 -68 -110 -301 -126
-363 -36 -139 -19 -227 52 -264 39 -21 90 -17 154 13 70 32 429 403 475 491 7
13 37 49 66 79 29 30 94 101 145 157 50 57 94 101 99 98 4 -3 39 -9 77 -15 91
-13 217 2 291 34 88 38 260 86 331 93 l64 6 -7 -29 c-4 -16 -15 -40 -25 -54
-10 -14 -42 -72 -71 -130 -30 -58 -78 -145 -108 -195 -30 -49 -65 -112 -78
-140 -13 -27 -37 -75 -55 -105 -26 -46 -30 -63 -26 -104 13 -146 192 -141 355
9 30 28 68 70 85 95 17 25 56 77 86 115 31 39 63 82 72 95 9 14 20 22 23 19
10 -10 -47 -131 -98 -208 -25 -37 -67 -114 -94 -170 -45 -95 -49 -107 -40
-145 5 -22 20 -52 34 -66 33 -34 96 -31 189 7 61 25 180 104 210 139 6 7 22
18 36 25 14 8 46 37 70 65 84 97 154 183 204 249 28 37 75 99 106 139 30 39
90 132 133 206 44 74 89 151 101 170 29 47 90 238 111 347 16 86 15 263 -2
334 -5 24 -2 28 24 34 55 12 112 62 140 123 20 45 26 76 30 157 5 116 -13 178
-74 262 l-35 48 36 -40 c102 -113 130 -281 73 -438 -17 -47 -33 -69 -89 -119
l-69 -61 0 -139 c0 -271 -50 -422 -248 -758 -53 -90 -271 -379 -380 -505 -147
-170 -349 -302 -477 -313 -58 -4 -64 -3 -98 28 -51 45 -63 93 -41 169 9 33 15
64 13 70 -3 7 -22 1 -49 -14 -135 -75 -144 -79 -206 -79 -72 -1 -107 15 -136
63 -38 61 -30 109 44 251 35 69 77 145 93 170 42 66 166 301 170 321 6 28 -20
42 -62 34 -20 -3 -111 -32 -202 -62 l-166 -56 -133 1 -132 0 -38 -31 c-21 -18
-73 -72 -117 -122 -44 -49 -82 -92 -85 -95 -3 -3 -50 -61 -104 -130 -55 -69
-163 -187 -240 -264 -167 -164 -212 -191 -308 -184 -54 4 -64 8 -94 40 -31 35
-54 90 -54 134 0 12 9 66 20 119 24 116 24 105 4 105 -9 0 -51 -33 -93 -73
-133 -126 -261 -176 -325 -126 -91 72 -79 203 44 459 72 152 112 249 150 363
20 61 20 70 7 90 -8 13 -45 35 -83 50 -174 69 -283 156 -414 327 -94 123 -104
153 -96 278 3 57 15 148 26 202 22 107 21 114 -25 181 -17 25 -46 90 -65 145
-41 117 -46 215 -16 274 17 32 103 130 115 130 3 0 -14 -19 -36 -42z m1500 35
c-7 -2 -19 -2 -25 0 -7 3 -2 5 12 5 14 0 19 -2 13 -5z m95 -10 c-10 -2 -28 -2
-40 0 -13 2 -5 4 17 4 22 1 32 -1 23 -4z m79 -68 c20 -8 55 -32 77 -53 23 -20
63 -52 90 -70 60 -41 76 -79 76 -180 0 -84 -24 -171 -73 -268 -29 -58 -46 -69
-82 -52 -55 25 -90 101 -138 303 -32 130 -89 273 -117 290 -22 14 -8 25 33 26
34 1 60 6 95 18 1 1 19 -6 39 -14z m213 -51 c0 -3 -13 4 -30 16 -16 12 -30 24
-30 26 0 3 14 -4 30 -16 17 -12 30 -24 30 -26z m31 -21 c13 -16 12 -17 -3 -4
-17 13 -22 21 -14 21 2 0 10 -8 17 -17z m83 -117 c9 -28 18 -64 21 -80 4 -17
14 -30 26 -33 27 -7 5 -23 -32 -23 -25 0 -26 1 -25 73 0 51 -5 82 -19 107 -15
30 -16 33 -2 21 9 -7 23 -36 31 -65z m783 68 c-3 -3 -12 -4 -19 -1 -8 3 -5 6
6 6 11 1 17 -2 13 -5z m-110 -20 c-3 -3 -12 -4 -19 -1 -8 3 -5 6 6 6 11 1 17
-2 13 -5z m746 -114 c20 -1 20 -2 4 -11 -13 -7 -23 -6 -40 7 -16 12 -17 15 -4
10 10 -3 28 -6 40 -6z m438 -37 c13 -16 12 -17 -3 -4 -17 13 -22 21 -14 21 2
0 10 -8 17 -17z m-121 -25 c45 -16 64 -31 121 -93 41 -45 47 -58 58 -127 23
-130 -3 -223 -80 -292 l-43 -40 -7 25 c-14 50 -8 90 23 149 27 52 30 63 19 86
-10 23 -16 25 -46 20 -33 -7 -34 -6 -65 58 -44 93 -90 125 -135 92 -25 -18
-26 -90 -2 -137 22 -42 84 -81 142 -89 l40 -5 -58 -62 -58 -61 -72 -6 c-121
-11 -182 22 -213 117 -23 69 -16 219 12 267 20 34 104 92 159 110 38 12 159 5
205 -12z m-1627 5 c-7 -2 -19 -2 -25 0 -7 3 -2 5 12 5 14 0 19 -2 13 -5z
m1563 -270 c-11 -12 -46 31 -46 56 0 24 1 24 26 -12 14 -21 23 -41 20 -44z
m-3155 -65 c12 -24 37 -60 57 -80 35 -37 35 -38 23 -79 -9 -31 -39 -69 -113
-145 -94 -97 -145 -134 -183 -134 -24 0 -75 55 -75 81 0 12 9 57 21 99 20 75
22 78 130 188 60 62 112 112 114 112 3 0 14 -19 26 -42z m348 -26 c65 -67 147
-178 178 -241 20 -39 28 -73 31 -132 4 -77 4 -78 -27 -110 -30 -29 -36 -31
-79 -25 -59 8 -145 59 -187 111 -18 22 -49 71 -70 108 -36 65 -37 71 -33 147
l3 79 55 56 c30 30 61 55 69 55 8 0 35 -21 60 -48z m-166 -389 c15 -24 27 -47
27 -52 0 -14 -98 -34 -142 -28 -39 5 -113 54 -113 74 0 5 33 40 74 77 l73 68
27 -48 c15 -27 39 -68 54 -91z m188 -448 c16 -62 71 -179 89 -190 18 -11 11
-30 -40 -106 -27 -40 -50 -79 -50 -85 0 -6 -15 -28 -33 -50 -18 -21 -70 -89
-116 -151 -91 -124 -181 -207 -243 -223 -64 -18 -72 -10 -65 63 5 64 40 158
147 397 28 63 67 160 85 215 18 55 43 122 55 148 l21 48 67 -3 67 -3 16 -60z
m1867 -136 c38 -16 46 -27 82 -100 22 -46 40 -89 40 -97 0 -16 -32 -65 -71
-107 -15 -16 -49 -61 -75 -100 -75 -111 -218 -269 -281 -311 -91 -61 -172 -52
-157 16 9 41 108 237 186 365 67 112 168 323 168 353 0 17 45 9 108 -19z"/>
<path d="M800 3354 c-47 -75 -63 -179 -32 -207 51 -46 126 7 192 134 38 74 41
83 26 97 -14 14 -17 14 -33 0 -10 -9 -33 -43 -52 -75 -40 -66 -60 -93 -73 -93
-13 0 1 50 30 106 22 44 24 54 13 68 -22 26 -40 19 -71 -30z"/>
<path d="M1124 3342 c-49 -23 -114 -79 -114 -97 0 -27 20 -25 85 10 58 30 76
35 136 35 90 0 117 -14 202 -103 63 -67 69 -71 82 -54 30 41 -19 115 -125 185
-50 33 -61 36 -140 39 -68 3 -93 0 -126 -15z"/>
<path d="M1657 3213 c-60 -88 -63 -178 -8 -220 48 -37 124 13 199 130 46 72
55 96 42 117 -14 22 -51 -3 -89 -62 -39 -59 -99 -128 -112 -128 -17 0 -8 65
16 124 13 33 22 63 19 68 -12 19 -43 5 -67 -29z"/>
</g>
</svg>
